<?xml version="1.0" standalone="no"?>
<!DOCTYPE svg PUBLIC "-//W3C//DTD SVG 1.1//EN" "http://www.w3.org/Graphics/SVG/1.1/DTD/svg11.dtd" >
<svg xmlns="http://www.w3.org/2000/svg">
<metadata></metadata>
<defs>
<font id="fiorelight" horiz-adv-x="1138" >
<font-face units-per-em="2048" ascent="1638" descent="-410" />
<missing-glyph horiz-adv-x="569" />
<glyph horiz-adv-x="0" />
<glyph unicode="&#xd;" horiz-adv-x="569" />
<glyph horiz-adv-x="0" />
<glyph horiz-adv-x="0" />
<glyph horiz-adv-x="0" />
<glyph unicode="&#x9;" horiz-adv-x="569" />
<glyph horiz-adv-x="0" />
<glyph unicode=" "  horiz-adv-x="569" />
<glyph unicode="&#x09;" horiz-adv-x="569" />
<glyph unicode="&#xa0;" horiz-adv-x="569" />
<glyph unicode="!" horiz-adv-x="493" d="M162 0v217h172v-217h-172zM178 1026v436h139v-436l-30 -661h-78z" />
<glyph unicode="&#x22;" horiz-adv-x="757" d="M178 965v497h129v-497h-129zM451 965v497h129v-497h-129z" />
<glyph unicode="#" d="M72 457v92h237l45 319h-225v93h238l63 454h102l-63 -454h289l63 454h103l-64 -454h215v-93h-227l-45 -319h215v-92h-227l-64 -457h-102l63 457h-289l-63 -457h-103l64 457h-225zM412 549h288l45 319h-288z" />
<glyph unicode="$" d="M59 467h129q2 -180 89.5 -275.5t248.5 -113.5v606q-86 18 -164.5 44t-137 72t-93.5 115.5t-35 178.5q0 92 34 165.5t92.5 126t136 80t167.5 27.5v160h80v-160q88 0 168 -31.5t140.5 -90t94 -140.5t31.5 -182h-129q-2 154 -86 244.5t-219 90.5v-589q88 -18 173 -45 t151.5 -74t107.5 -119t41 -178q0 -102 -40 -178t-106.5 -127t-151.5 -77t-175 -26v-174h-80v176q-240 23 -349 141.5t-118 352.5zM225 1079q0 -72 25.5 -116.5t67.5 -73.5t96.5 -45.5t111.5 -30.5v571q-61 0 -115.5 -17t-96.5 -54t-65.5 -95.5t-23.5 -138.5zM606 78 q63 0 126 16.5t111 53t77.5 93t29.5 136.5q0 74 -31.5 123t-81 80.5t-110.5 52t-121 35.5v-590z" />
<glyph unicode="%" horiz-adv-x="1820" d="M141 1059q0 82 18.5 152.5t57.5 122.5t101.5 82t148.5 30t148.5 -30t101.5 -82t57.5 -122.5t18.5 -152.5t-18.5 -152.5t-57.5 -123t-101.5 -82t-148.5 -29.5t-148.5 29.5t-101.5 82t-57.5 123t-18.5 152.5zM250 1057q0 -49 9 -100.5t33.5 -94.5t66.5 -70.5t108 -27.5 q63 0 105 27.5t67 70.5t35 94.5t10 100.5t-10 101t-35 96t-67 72t-105 28q-66 0 -108 -28t-66.5 -72t-33.5 -96t-9 -101zM389 -68l928 1553h96l-926 -1553h-98zM1040 356q0 82 18.5 153t57.5 123t101.5 81.5t148.5 29.5t148.5 -29.5t101.5 -81.5t57.5 -123t18.5 -153 q0 -84 -18.5 -153.5t-57.5 -121.5t-101.5 -81t-148.5 -29t-148.5 29t-101.5 81t-57.5 121.5t-18.5 153.5zM1149 354q0 -49 9 -100t34 -94t66.5 -71t107.5 -28q63 0 105 28t67 71t35 94t10 100t-10 101.5t-35 96.5t-67 71.5t-105 27.5q-66 0 -107.5 -27.5t-66.5 -71.5 t-34 -96.5t-9 -101.5z" />
<glyph unicode="&#x26;" horiz-adv-x="1251" d="M80 379q0 78 32.5 142.5t85 118.5t116 97t124.5 76q-31 39 -62.5 79t-57 83t-43 90t-17.5 100q0 68 25.5 122t69.5 93t102.5 60.5t126.5 21.5t126 -21.5t102 -60.5t69.5 -93t25.5 -122t-24.5 -123t-64.5 -100t-91 -83t-107 -73l320 -385q27 53 35 107.5t8 138.5h129 q0 -61 -17.5 -158.5t-68.5 -191.5l246 -297h-162l-156 190q-80 -100 -190.5 -159.5t-239.5 -59.5q-94 0 -175 27t-140.5 78t-93 127t-33.5 176zM209 367q0 -66 26.5 -118t70.5 -91t101.5 -59.5t118.5 -20.5q111 0 198 60.5t148 148.5l-364 442q-53 -29 -106.5 -63.5 t-96.5 -79.5t-69.5 -99.5t-26.5 -119.5zM387 1165q0 -39 16.5 -78.5t41 -77.5t53 -74t53.5 -65q39 25 79 53.5t72.5 64.5t53 80t20.5 97q0 92 -57 140.5t-137 48.5t-137.5 -48.5t-57.5 -140.5z" />
<glyph unicode="'" horiz-adv-x="569" d="M221 965v497h129v-497h-129z" />
<glyph unicode="(" horiz-adv-x="493" d="M104 545q0 266 77 501.5t212 446.5h103q-137 -223 -200 -471t-63 -524q0 -111 18.5 -228.5t53.5 -232.5t83 -223.5t108 -202.5h-103q-68 113 -122 223.5t-91 223t-56.5 232.5t-19.5 255z" />
<glyph unicode=")" horiz-adv-x="493" d="M0 -389q135 223 197.5 470t62.5 523q0 113 -19.5 229.5t-55 230.5t-83 222.5t-102.5 206.5h100q68 -115 122 -224.5t91 -223t56.5 -234.5t19.5 -254q0 -266 -76.5 -500.5t-212.5 -445.5h-100z" />
<glyph unicode="*" horiz-adv-x="720" d="M55 1219l29 75l235 -84v252h80v-252l236 84l31 -75l-242 -80l147 -201l-65 -47l-150 205l-149 -205l-66 47l150 201z" />
<glyph unicode="+" horiz-adv-x="1228" d="M100 461v108h461v461h109v-461h460v-108h-460v-461h-109v461h-461z" />
<glyph unicode="," horiz-adv-x="569" d="M190 -190q25 8 43.5 30.5t30.5 50t17.5 57t3.5 52.5h-86v217h172v-217q0 -45 -11.5 -89t-34 -82t-56 -66.5t-79.5 -41.5v89z" />
<glyph unicode="-" horiz-adv-x="757" d="M123 504v119h512v-119h-512z" />
<glyph unicode="." horiz-adv-x="569" d="M199 0v217h172v-217h-172z" />
<glyph unicode="/" horiz-adv-x="681" d="M-25 -29l629 1522h105l-625 -1522h-109z" />
<glyph unicode="0" d="M70 707q0 125 19.5 257t73.5 238.5t151 175t255 68.5q156 0 254.5 -68.5t152.5 -175t73.5 -237.5t19.5 -256q0 -127 -19.5 -258.5t-73.5 -238t-152.5 -174t-254.5 -67.5q-158 0 -255 67.5t-151 174t-73.5 237t-19.5 257.5zM199 709q0 -94 12 -204t50 -205t111.5 -158.5 t196.5 -63.5t197 63.5t111.5 158.5t50 204.5t12.5 204.5q0 92 -12.5 202.5t-50 204.5t-111.5 157.5t-197 63.5t-196.5 -63.5t-111.5 -157.5t-50 -204.5t-12 -202.5z" />
<glyph unicode="1" d="M199 1065v92q84 2 151.5 9.5t118.5 34t85 80.5t48 153h105v-1434h-129v1065h-379z" />
<glyph unicode="2" d="M74 0q2 106 37.5 188t92 147.5t128 120t147.5 103.5q78 51 152 103.5t130 109.5t90 124t32 148q-2 70 -29 124.5t-70 92t-100 57t-123 19.5q-88 0 -150.5 -32.5t-101.5 -88t-56 -127t-15 -151.5h-129q-2 111 25.5 204t84.5 160.5t144.5 105.5t203.5 38q94 0 175 -25.5 t141.5 -76t94.5 -126t34 -176.5q0 -90 -30 -162.5t-80 -135t-115.5 -114.5t-135.5 -98q-53 -35 -121.5 -75.5t-133 -92t-114 -113t-61.5 -132.5h797v-119h-944z" />
<glyph unicode="3" d="M68 457h129q-4 -86 19.5 -156t69.5 -119t114.5 -76.5t154.5 -27.5q70 0 136.5 20.5t117.5 61.5t82 99t31 136q0 76 -27 133.5t-74 95.5t-109.5 56t-133.5 18h-109v109h109q49 0 101 15.5t94 47t68.5 80.5t26.5 117q0 70 -24.5 121t-67.5 85t-100.5 49t-120.5 15 q-80 0 -141.5 -26.5t-103.5 -74.5t-62.5 -114.5t-18.5 -146.5h-129q0 100 32 187t90.5 149.5t142.5 98.5t188 36q84 0 164 -21.5t142.5 -65.5t100 -113.5t37.5 -164.5q0 -117 -62.5 -202.5t-178.5 -114.5v-4q141 -23 218 -118t77 -236q0 -106 -40 -187.5t-107.5 -136.5 t-158 -83t-188.5 -28q-111 0 -204 33t-159.5 94.5t-100.5 151.5t-25 207z" />
<glyph unicode="4" d="M61 356v125l664 953h117v-969h215v-109h-215v-356h-119v356h-662zM178 465h545v780h-4z" />
<glyph unicode="5" d="M74 410h129q2 -74 29.5 -135.5t74.5 -105.5t110.5 -67.5t137.5 -23.5q82 0 148.5 31.5t113.5 86t71.5 125t24.5 148.5q0 80 -27.5 147.5t-75.5 117.5t-115.5 79t-147.5 29q-98 0 -182 -44t-138 -126h-110l139 743h717v-119h-627l-92 -475l4 -4q53 63 135 98t168 35 q111 0 200 -36.5t151.5 -102.5t96 -157t33.5 -199q0 -104 -38.5 -193.5t-106.5 -154t-159 -100.5t-193 -36q-100 0 -185.5 30t-147.5 86t-99 138t-39 185z" />
<glyph unicode="6" d="M82 731q0 43 5 112.5t23.5 148.5t52.5 160t90 146.5t140 106.5t201 41q193 0 305.5 -91t134.5 -284h-129q-16 119 -95 192.5t-204 73.5q-127 0 -203.5 -63.5t-119.5 -159.5t-57.5 -207.5t-14.5 -210.5h4q51 106 154.5 172t226.5 66q106 0 194.5 -36t149.5 -99.5 t95 -151.5t34 -192t-36 -193.5t-100.5 -154t-153.5 -100.5t-195 -36q-131 0 -225.5 40t-156 130t-91 234.5t-29.5 355.5zM238 446q0 -78 20.5 -144t64.5 -116.5t111.5 -79t161.5 -28.5q76 0 139.5 29.5t109.5 80t70.5 118t24.5 140.5q0 78 -23.5 148t-67.5 121t-108.5 80.5 t-146.5 29.5q-84 0 -150.5 -29.5t-112.5 -80.5t-69.5 -120t-23.5 -149z" />
<glyph unicode="7" d="M104 1296v119h922v-119q-68 -70 -162 -187.5t-183 -280t-155.5 -370.5t-79.5 -458h-139q12 182 50 344t109 316.5t176.5 310t254.5 325.5h-793z" />
<glyph unicode="8" d="M76 401q2 141 78.5 241.5t212.5 125.5v4q-113 35 -173.5 116t-60.5 199q0 92 38 160t99.5 112t139 65.5t157.5 21.5t158 -21.5t140.5 -65.5t100.5 -112t38 -160q0 -117 -61.5 -199.5t-172.5 -115.5v-4q141 -29 217 -124t76 -243q0 -109 -39 -189.5t-106.5 -133.5 t-157.5 -80t-191 -27q-102 0 -192 27t-157.5 80t-106.5 134t-37 189zM205 401q0 -80 28.5 -141t77.5 -101t115.5 -60.5t142.5 -20.5t142.5 19.5t116 59.5t78 100t28.5 144q0 76 -30 134.5t-80 98.5t-116.5 59.5t-138.5 19.5q-74 0 -140.5 -19.5t-115.5 -58.5t-78.5 -97.5 t-29.5 -136.5zM262 1087q0 -72 26.5 -122t69.5 -82.5t98.5 -47t112.5 -14.5q59 0 114.5 15.5t97.5 48.5t67.5 83t25.5 119q0 61 -23.5 108.5t-64.5 78.5t-97 47t-120 16q-59 0 -114.5 -16t-98.5 -47t-68.5 -78t-25.5 -109z" />
<glyph unicode="9" d="M70 961q0 104 35.5 193t100 153.5t154 101.5t195.5 37q131 0 225 -40t155.5 -131t91.5 -236.5t30 -354.5q0 -43 -5 -112.5t-23.5 -148.5t-52.5 -160t-90.5 -145.5t-140 -105.5t-200.5 -41q-193 0 -305.5 90.5t-135.5 282.5h129q16 -119 95.5 -192.5t203.5 -73.5 q125 0 203 63.5t121 159.5t57.5 208t14.5 210h-4q-51 -106 -154.5 -172t-226.5 -66q-109 0 -196 36t-148.5 99.5t-95 151.5t-33.5 193zM199 969q0 -78 23.5 -147.5t67.5 -121t108.5 -81t146.5 -29.5q84 0 150.5 29.5t112.5 81t69.5 120t23.5 148.5q0 76 -20.5 143.5 t-64.5 117.5t-111.5 78.5t-161.5 28.5q-78 0 -140.5 -29.5t-108.5 -79.5t-70.5 -118t-24.5 -141z" />
<glyph unicode=":" horiz-adv-x="569" d="M199 0v217h172v-217h-172zM199 807v217h172v-217h-172z" />
<glyph unicode=";" horiz-adv-x="569" d="M190 -190q25 8 43.5 30.5t30.5 50t17.5 57t3.5 52.5h-86v217h172v-217q0 -45 -11.5 -89t-34 -82t-56 -66.5t-79.5 -41.5v89zM199 807v217h172v-217h-172z" />
<glyph unicode="&#x3c;" horiz-adv-x="1228" d="M94 463v110l1041 480v-113l-914 -422l914 -422v-110z" />
<glyph unicode="=" horiz-adv-x="1228" d="M100 262v109h1030v-109h-1030zM100 666v108h1030v-108h-1030z" />
<glyph unicode="&#x3e;" horiz-adv-x="1228" d="M94 -14v110l914 422l-914 422v113l1041 -480v-110z" />
<glyph unicode="?" horiz-adv-x="1099" d="M111 1012q0 109 30.5 197.5t91 151t146.5 97.5t196 35q86 0 161 -25.5t132.5 -75t90 -120t32.5 -158.5q0 -57 -13 -105t-36.5 -89t-56.5 -79t-72 -75q-66 -63 -102.5 -98t-55 -71t-24.5 -86t-8 -144h-129q-2 94 10 157.5t39.5 113.5t74 97t111.5 109q59 53 96 118.5 t37 145.5q0 61 -23.5 112.5t-63.5 87t-93 56t-113 20.5q-84 0 -146.5 -28.5t-103 -78.5t-61 -117.5t-18.5 -147.5h-129zM473 0v217h172v-217h-172z" />
<glyph unicode="@" horiz-adv-x="1638" d="M96 737q0 160 58.5 298.5t161 239.5t238.5 159.5t294 58.5q147 0 274 -46t220.5 -131t146.5 -202t53 -258q0 -123 -42 -231.5t-109.5 -189.5t-152.5 -127t-171 -46q-53 0 -92 35t-45 102h-4q-47 -49 -115 -92t-145 -43q-63 0 -113.5 23.5t-85.5 64.5t-53.5 94.5 t-18.5 114.5q0 106 35 212t98.5 191t153.5 137t199 52q68 0 125 -40t92 -132l51 133h108l-196 -590q-10 -33 -17.5 -63.5t-5.5 -54t13.5 -38t35.5 -14.5q68 0 131.5 47.5t110.5 121t76 163.5t29 176q0 127 -46.5 227.5t-126 169t-185 105.5t-224.5 37q-143 0 -262 -53.5 t-205 -144.5t-133 -215t-47 -265q0 -139 49 -260t136 -210t207 -140.5t259 -51.5q76 0 150.5 18.5t144.5 54.5t129 86t104 114h105q-47 -84 -115.5 -151.5t-151.5 -115t-176.5 -72t-189.5 -24.5q-166 0 -305 58.5t-240.5 162t-158 242.5t-56.5 303zM524 571q0 -92 48.5 -145 t121.5 -53q70 0 132.5 50t108.5 122.5t72.5 156.5t26.5 152q0 37 -14 70.5t-36.5 60.5t-51.5 43t-60 16q-78 0 -142 -47t-110.5 -117.5t-71 -153.5t-24.5 -155z" />
<glyph unicode="A" horiz-adv-x="1290" d="M-12 0l587 1462h156l574 -1462h-150l-178 455h-666l-176 -455h-147zM354 573h576l-283 750z" />
<glyph unicode="B" horiz-adv-x="1366" d="M147 0v1462h619q92 0 177 -17.5t149.5 -59.5t103.5 -110.5t39 -170.5q0 -57 -18.5 -111.5t-52.5 -98.5t-80 -75t-103 -43v-4q141 -18 225 -115.5t84 -240.5q0 -53 -15 -124t-68.5 -136.5t-158 -110.5t-282.5 -45h-619zM287 119h479q78 0 147.5 13t123 48t84 92.5 t30.5 147.5q0 141 -99.5 211.5t-285.5 70.5h-479v-583zM287 821h479q82 0 144.5 19.5t103.5 53.5t61.5 79t20.5 96q0 274 -330 274h-479v-522z" />
<glyph unicode="C" horiz-adv-x="1441" d="M78 731q0 150 43 288t129 243.5t216 168t302 62.5q104 0 203.5 -30.5t180.5 -91t135 -148.5t69 -203h-139q-18 84 -60.5 150.5t-103 111.5t-133 68.5t-152.5 23.5q-145 0 -249.5 -55t-171 -146.5t-98.5 -207t-32 -234.5q0 -121 32 -235.5t98.5 -205.5t171 -146.5 t249.5 -55.5q100 0 183 37t142.5 100.5t96.5 148.5t47 183h139q-14 -135 -63 -243.5t-127 -184.5t-183.5 -117t-234.5 -41q-172 0 -302 62.5t-216 167t-129 242t-43 288.5z" />
<glyph unicode="D" horiz-adv-x="1402" d="M147 0v1462h506q672 0 672 -731t-672 -731h-506zM287 119h297q158 0 271.5 33.5t187 107.5t108.5 190.5t35 280.5t-35 280.5t-108.5 190.5t-187.5 107.5t-271 33.5h-297v-1224z" />
<glyph unicode="E" horiz-adv-x="1214" d="M147 0v1462h1010v-119h-870v-528h815v-119h-815v-577h880v-119h-1020z" />
<glyph unicode="F" horiz-adv-x="1099" d="M147 0v1462h928v-119h-788v-528h700v-119h-700v-696h-140z" />
<glyph unicode="G" horiz-adv-x="1517" d="M78 731q0 150 43 288t129 243.5t216 168t302 62.5q115 0 217 -30.5t183 -92t135.5 -153t74.5 -209.5h-139q-6 63 -42 127.5t-96.5 118t-144.5 87t-188 33.5q-145 0 -249.5 -55t-171 -146.5t-98.5 -207t-32 -234.5q0 -121 32 -235.5t98.5 -205.5t171 -146.5t249.5 -55.5 q121 0 216 40t160.5 111.5t98.5 170.5q31 92 31 202v13h-498v118h621v-743h-101l-18 266h-4q-37 -78 -91.5 -134t-120 -92t-140 -52.5t-154.5 -16.5q-172 0 -302 62.5t-216 167t-129 242t-43 288.5z" />
<glyph unicode="H" horiz-adv-x="1441" d="M147 0v1462h140v-635h868v635h139v-1462h-139v709h-868v-709h-140z" />
<glyph unicode="I" horiz-adv-x="454" d="M158 0v1462h139v-1462h-139z" />
<glyph unicode="J" horiz-adv-x="1024" d="M43 469h139q2 -47 6.5 -112.5t29 -125t80.5 -101.5t165 -42q82 0 135 21.5t84 67.5t43 118t12 172v995h140v-1054q0 -113 -23 -195t-73 -136t-131 -80t-199 -26q-127 0 -206 42t-124 111t-61.5 159t-16.5 186z" />
<glyph unicode="K" horiz-adv-x="1327" d="M147 0v1462h140v-786l850 786h188l-653 -604l684 -858h-180l-609 762l-280 -260v-502h-140z" />
<glyph unicode="L" horiz-adv-x="1099" d="M147 0v1462h140v-1343h819v-119h-959z" />
<glyph unicode="M" horiz-adv-x="1705" d="M143 0v1462h205l506 -1282l504 1282h205v-1462h-140v1264h-4l-499 -1264h-132l-501 1264h-4v-1264h-140z" />
<glyph unicode="N" horiz-adv-x="1441" d="M145 0v1462h156l852 -1237h4v1237h139v-1462h-155l-852 1237h-4v-1237h-140z" />
<glyph unicode="O" horiz-adv-x="1517" d="M70 731q0 150 43 288t129 243.5t216 168t302 62.5t301 -62.5t215 -168t129 -243.5t43 -288q0 -152 -43 -289t-129 -241.5t-215 -167t-301 -62.5t-302 62.5t-216 167t-129 241.5t-43 289zM209 731q0 -121 31.5 -235.5t98.5 -205.5t171 -146.5t250 -55.5q143 0 247.5 55.5 t171 146.5t98.5 205.5t32 235.5q0 119 -32 234.5t-98.5 207t-171 146.5t-247.5 55q-145 0 -249.5 -55t-171.5 -146.5t-98.5 -207t-31.5 -234.5z" />
<glyph unicode="P" horiz-adv-x="1290" d="M147 0v1462h650q98 0 178 -27.5t137 -82t88 -132t31 -176.5q0 -98 -31 -175.5t-88 -132t-137 -82t-178 -27.5h-510v-627h-140zM287 745h479q145 0 235.5 74t90.5 225q0 152 -90.5 225.5t-235.5 73.5h-479v-598z" />
<glyph unicode="Q" horiz-adv-x="1517" d="M70 731q0 150 43 288t129 243.5t216 168t302 62.5t301 -62.5t215 -168t129 -243.5t43 -288q0 -174 -55.5 -323.5t-165.5 -255.5l209 -158l-70 -86l-227 170q-150 -106 -379 -107q-172 0 -302 62.5t-216 167t-129 242t-43 288.5zM209 731q0 -121 31.5 -235.5t98.5 -205.5 t171 -146.5t250 -55.5q156 0 270 72l-192 145l71 88l213 -162q98 92 142.5 225.5t44.5 274.5q0 119 -32 234.5t-98.5 207t-171 146.5t-247.5 55q-145 0 -249.5 -55t-171.5 -146.5t-98.5 -207t-31.5 -234.5z" />
<glyph unicode="R" horiz-adv-x="1366" d="M147 0v1462h670q90 0 171 -22.5t141.5 -68.5t96.5 -118.5t36 -171.5q0 -139 -72 -241.5t-213 -130.5v-4q72 -10 119 -38t76.5 -71t43 -99.5t17.5 -121.5q2 -37 4 -90.5t8 -107.5t19.5 -102t35.5 -75h-153q-12 20 -19.5 50t-11.5 61.5t-5 62.5t-3 53q-4 76 -14.5 152 t-39 136t-85 97t-154.5 37h-528v-649h-140zM287 768h520q63 0 120.5 19.5t100.5 56.5t68.5 89t25.5 120q0 135 -77.5 212.5t-237.5 77.5h-520v-575z" />
<glyph unicode="S" horiz-adv-x="1290" d="M74 481h139v-11q0 -106 35 -178q37 -76 101.5 -120.5t152.5 -64t188 -19.5q57 0 125 16.5t126 52.5t97 92t39 136q0 61 -27.5 106.5t-71.5 76t-97.5 50t-104.5 31.5l-325 80q-66 16 -125.5 41t-104.5 66t-72.5 100t-27.5 145q0 53 20.5 125t76.5 135.5t154.5 107.5 t252.5 44q109 0 207 -28.5t171.5 -86t117.5 -142.5t44 -198h-139q-4 82 -38 145.5t-88 105.5t-124.5 63.5t-148.5 21.5q-72 0 -138.5 -15.5t-116.5 -49t-81 -89t-31 -137.5q0 -53 17.5 -90t48 -63.5t70.5 -43t85 -26.5l357 -88q78 -18 146.5 -48t120.5 -75t82 -109.5 t30 -152.5q0 -25 -5.5 -65.5t-25 -87t-55 -93.5t-98 -85t-155 -61.5t-221.5 -23.5t-239.5 30t-188 91.5t-119.5 157.5q-37 84 -37 198q0 16 1 33z" />
<glyph unicode="T" d="M-8 1343v119h1157v-119h-510v-1343h-139v1343h-508z" />
<glyph unicode="U" horiz-adv-x="1402" d="M133 526v936h139v-905q0 -127 29 -216t84 -145.5t134 -82t181 -25.5t182.5 25.5t135.5 82t83.5 145.5t28.5 216v905h140v-936q0 -115 -32 -215t-100.5 -176t-176 -120t-261.5 -44q-152 0 -259 44t-175.5 120t-100.5 176.5t-32 214.5z" />
<glyph unicode="V" horiz-adv-x="1214" d="M-12 1462h147l475 -1308h4l471 1308h148l-543 -1462h-162z" />
<glyph unicode="W" horiz-adv-x="1857" d="M0 1462h150l331 -1280h4l357 1280h174l358 -1280h4l334 1280h139l-403 -1462h-148l-370 1309h-4l-369 -1309h-151z" />
<glyph unicode="X" horiz-adv-x="1175" d="M-23 0l525 754l-496 708h164l414 -612l428 612h155l-499 -712l528 -750h-168l-444 645l-451 -645h-156z" />
<glyph unicode="Y" horiz-adv-x="1251" d="M-18 1462h163l482 -741l479 741h166l-578 -860v-602h-139v602z" />
<glyph unicode="Z" horiz-adv-x="1175" d="M10 0v123l963 1220h-897v119h1052v-123l-962 -1220h983v-119h-1139z" />
<glyph unicode="[" horiz-adv-x="493" d="M156 -389v1882h329v-109h-200v-1665h200v-108h-329z" />
<glyph unicode="\" horiz-adv-x="681" d="M-25 1493h103l631 -1522h-111z" />
<glyph unicode="]" horiz-adv-x="493" d="M8 -281h201v1665h-201v109h330v-1882h-330v108z" />
<glyph unicode="^" horiz-adv-x="1228" d="M90 487l471 928h107l471 -928h-117l-410 799l-403 -799h-119z" />
<glyph unicode="_" horiz-adv-x="1024" d="M0 -152h1024v-102h-1024v102z" />
<glyph unicode="`" horiz-adv-x="378" d="M-61 1493h157l215 -289h-104z" />
<glyph unicode="a" horiz-adv-x="1062" d="M66 279q0 111 49 173t130 96t182 46t206 24q39 4 70.5 11.5t52 22t32 41t11.5 69.5q0 66 -21.5 107.5t-59.5 66.5t-88 34t-108 9q-123 0 -200.5 -58.5t-81.5 -187.5h-129q12 186 127.5 270t300.5 84q70 0 139.5 -13t124.5 -50t90 -103.5t35 -172.5v-562q0 -77 74 -77h2 q25 0 40 8v-109q-23 -4 -40 -6t-43 -2q-49 0 -79 13.5t-46.5 38t-21.5 58t-5 74.5h-4q-35 -51 -71 -91t-80 -66.5t-101 -41t-133 -14.5q-74 0 -138.5 17.5t-112.5 55.5t-75.5 96.5t-27.5 138.5zM195 287q0 -49 19 -87t52 -66t75 -42t89 -14q74 0 141.5 22.5t117.5 65.5 t80 104.5t30 139.5v168h-4q-12 -23 -47 -33t-62 -15q-82 -14 -169 -25t-158.5 -33.5t-117.5 -66t-46 -118.5z" />
<glyph unicode="b" horiz-adv-x="1175" d="M123 0v1462h129v-606h4q20 57 58 100t87.5 72t105.5 44t116 15q121 0 210 -45t148 -121.5t88 -178t29 -214.5q0 -115 -29 -215t-88 -177t-148.5 -121t-209.5 -44q-129 0 -230.5 59.5t-146.5 170.5h-4v-201h-119zM252 528q0 -82 19.5 -162.5t63.5 -144t114.5 -103.5 t173.5 -40q92 0 157.5 40t107.5 103.5t61.5 144t19.5 162.5t-19.5 163t-61.5 144.5t-107.5 103.5t-157.5 40q-102 0 -173 -40t-115 -103.5t-63.5 -144.5t-19.5 -163z" />
<glyph unicode="c" horiz-adv-x="1062" d="M70 528q0 113 32.5 215.5t96 178t157 120.5t213.5 45q170 0 288 -90t140 -272h-129q-27 119 -98.5 186.5t-200.5 67.5q-92 0 -161.5 -39t-115.5 -102.5t-69.5 -144.5t-23.5 -165t23.5 -164.5t69.5 -144t115.5 -102.5t161.5 -39q59 0 112.5 22.5t94.5 62.5t67.5 95 t33.5 121h129q-27 -193 -141.5 -300.5t-295.5 -107.5q-121 0 -214 44t-156.5 120t-96 177.5t-32.5 215.5z" />
<glyph unicode="d" horiz-adv-x="1175" d="M78 528q0 113 28.5 214.5t88 178t148.5 121.5t210 45q57 0 114.5 -14t106.5 -44t87 -73t59 -100h4v606h129v-1462h-119v201h-4q-20 -53 -60.5 -95.5t-91.5 -72t-109.5 -46t-115.5 -16.5q-121 0 -210 44t-148.5 121t-88 177.5t-28.5 214.5zM207 528q0 -82 19.5 -162.5 t61.5 -144t107.5 -103.5t157.5 -40q102 0 173 40t115 103.5t63.5 144t19.5 162.5t-19.5 163t-63.5 144.5t-115 103.5t-173 40q-92 0 -157.5 -40t-107.5 -103.5t-61.5 -144.5t-19.5 -163z" />
<glyph unicode="e" horiz-adv-x="1062" d="M70 528q0 104 27.5 205t85 179.5t147.5 126.5t217 48t217 -51t146 -134q58 -82 82 -190q21 -92 21 -187q0 -15 -1 -31h-813q0 -72 19.5 -146t62.5 -133t108.5 -98t157.5 -39q141 0 221 73.5t111 196.5h129q-41 -180 -150.5 -278.5t-310.5 -98.5q-127 0 -217 44 t-147.5 121t-85 177.5t-27.5 214.5zM199 602h684q-2 74 -25.5 141.5t-66.5 119.5t-104.5 84t-139.5 32q-80 0 -141.5 -32t-104.5 -84t-68.5 -120.5t-33.5 -140.5z" />
<glyph unicode="f" horiz-adv-x="530" d="M12 948v109h181v96q0 68 10 125t38.5 98t79 63.5t128.5 22.5q29 0 53 -2t55 -6v-111q-27 4 -49.5 7.5t-44.5 3.5q-53 0 -82 -16.5t-42 -44t-15 -64.5t-2 -80v-92h208v-109h-208v-948h-129v948h-181z" />
<glyph unicode="g" d="M70 555q0 109 31.5 206t92 170t149.5 114.5t204 41.5q57 0 110.5 -16t97.5 -46t76.5 -68.5t51.5 -82.5h4v183h129v-971q0 -117 -25.5 -211t-81 -159.5t-144.5 -100.5t-218 -35q-80 0 -156 18.5t-136 57.5t-100 99.5t-46 144.5h129q10 -59 39.5 -99.5t71.5 -65t93.5 -35.5 t104.5 -11q180 0 260 102.5t80 294.5v143h-4q-45 -98 -132 -157.5t-204 -59.5q-127 0 -217 42t-148.5 116t-85 172t-26.5 213zM199 541q0 -80 20.5 -156t63.5 -134t108.5 -94t155.5 -36q84 0 147.5 36t106.5 94t64.5 134t21.5 156q0 78 -18.5 155.5t-59.5 141t-105.5 102.5 t-156.5 39t-157.5 -38t-108.5 -99.5t-62.5 -140t-19.5 -160.5z" />
<glyph unicode="h" horiz-adv-x="1099" d="M121 0v1462h129v-588h4q37 98 131 155.5t207 57.5q111 0 185.5 -28.5t119.5 -80.5t63.5 -128t18.5 -170v-680h-129v659q0 68 -12.5 126.5t-43 101.5t-83 67.5t-129.5 24.5q-78 0 -139.5 -27.5t-104.5 -76t-65.5 -115t-22.5 -144.5v-616h-129z" />
<glyph unicode="i" horiz-adv-x="378" d="M125 0v1057h129v-1057h-129zM125 1255v207h129v-207h-129z" />
<glyph unicode="j" horiz-adv-x="378" d="M-59 -279q16 -2 34.5 -3t32.5 1q76 0 96.5 44t20.5 110v1184h129v-1153q0 -59 -9 -112.5t-35 -93.5t-70 -63.5t-111 -23.5q-23 0 -44.5 2t-43.5 2v106zM125 1255v207h129v-207h-129z" />
<glyph unicode="k" horiz-adv-x="1024" d="M123 0v1462h129v-917l586 512h172l-451 -391l481 -666h-161l-418 575l-209 -174v-401h-129z" />
<glyph unicode="l" horiz-adv-x="378" d="M125 0v1462h129v-1462h-129z" />
<glyph unicode="m" horiz-adv-x="1705" d="M123 0v1057h119v-178h6q51 98 134 153t212 55q104 0 189 -51t114 -155q47 104 139 155t197 51q350 0 350 -370v-717h-129v711q0 131 -55.5 199.5t-194.5 68.5q-84 0 -139 -32t-88 -85t-46 -121.5t-13 -142.5v-598h-130v717q0 53 -11 101t-36.5 84t-68.5 56.5t-105 20.5 q-84 0 -143 -29.5t-97 -82t-56.5 -124t-18.5 -153.5v-590h-129z" />
<glyph unicode="n" horiz-adv-x="1099" d="M121 0v1057h129v-183h4q37 98 131 155.5t207 57.5q111 0 185.5 -28.5t119.5 -80.5t63.5 -128t18.5 -170v-680h-129v659q0 68 -12.5 126.5t-43 101.5t-83 67.5t-129.5 24.5q-78 0 -139.5 -27.5t-104.5 -76t-65.5 -115t-22.5 -144.5v-616h-129z" />
<glyph unicode="o" d="M70 528q0 113 32.5 215.5t96 178t156.5 120.5t214 45t214.5 -45t157 -120.5t96 -178t32.5 -215.5q0 -115 -32.5 -216t-96 -177t-157 -120t-214.5 -44t-214 44t-156.5 120t-96 177.5t-32.5 215.5zM199 528q0 -84 23.5 -164.5t69.5 -144t115.5 -102.5t161.5 -39t162 39 t116 102.5t69.5 144t23.5 164.5t-23.5 165t-69.5 144.5t-116 102.5t-162 39t-161.5 -39t-115.5 -102.5t-69.5 -144.5t-23.5 -165z" />
<glyph unicode="p" horiz-adv-x="1175" d="M123 -389v1446h119v-201h4q45 111 146.5 171t230.5 60q121 0 210 -45t148 -121.5t88 -178t29 -214.5q0 -115 -29 -215t-88 -177t-148.5 -121t-209.5 -44q-59 0 -115.5 14.5t-106 43t-87.5 71.5t-58 101h-4v-590h-129zM252 528q0 -82 19.5 -162.5t63.5 -144t114.5 -103.5 t173.5 -40q92 0 157.5 40t107.5 103.5t61.5 144t19.5 162.5t-19.5 163t-61.5 144.5t-107.5 103.5t-157.5 40q-109 0 -179.5 -37t-113.5 -98.5t-60.5 -143.5t-17.5 -172z" />
<glyph unicode="q" horiz-adv-x="1175" d="M78 528q0 113 28.5 214.5t88 178t148.5 121.5t210 45q57 0 115.5 -16t109.5 -47t91 -74t61 -94h4v201h119v-1446h-129v590h-4q-20 -57 -58.5 -100.5t-87.5 -72t-106.5 -43t-114.5 -14.5q-121 0 -210 44t-148.5 121t-88 177.5t-28.5 214.5zM207 528q0 -82 19.5 -162.5 t61.5 -144t107.5 -103.5t157.5 -40q102 0 173 40t115 103.5t63.5 144t19.5 162.5t-19.5 163t-63.5 144.5t-115 103.5t-173 40q-92 0 -157.5 -40t-107.5 -103.5t-61.5 -144.5t-19.5 -163z" />
<glyph unicode="r" horiz-adv-x="645" d="M123 0v1057h119v-248h4q48 129 152 199q95 64 225 64q11 0 22 -1v-129q-11 1 -22 1q-75 -1 -137 -25q-72 -28 -124.5 -79t-81 -122.5t-28.5 -153.5v-563h-129z" />
<glyph unicode="s" horiz-adv-x="985" d="M63 342h130q8 -131 95 -197.5t216 -66.5q45 0 96 10t94 34.5t71 62.5t28 94q0 47 -19.5 78.5t-52.5 54t-75 36t-85 23.5l-166 37q-63 14 -117.5 34.5t-93.5 53.5t-61.5 80t-22.5 115q0 80 36 137t93.5 92t128 51t140.5 16q80 0 148.5 -20t120.5 -63t83 -106.5t35 -149.5 h-129q-2 59 -24.5 103t-60.5 72.5t-87 42t-105 13.5q-43 0 -87 -9t-81 -30.5t-59.5 -56.5t-22.5 -86q0 -43 21.5 -73t54.5 -51.5t71 -33.5t73 -21l172 -38q55 -12 108 -34t96 -56.5t70 -84t27 -118.5q0 -86 -39 -146.5t-99.5 -98.5t-136.5 -54.5t-149 -16.5q-186 0 -302 88 t-133 283z" />
<glyph unicode="t" horiz-adv-x="606" d="M14 948v109h185v317h129v-317h215v-109h-215v-712q0 -63 17 -99.5t87 -40.5q29 -2 55.5 0t55.5 6v-108q-29 0 -57.5 -2t-57.5 -2q-129 0 -179 50t-50 185v723h-185z" />
<glyph unicode="u" horiz-adv-x="1099" d="M121 371v686h129v-688q0 -143 64.5 -217t217.5 -74q82 0 142.5 36t99.5 95t57.5 136t18.5 157v555h129v-1057h-119v190h-4q-51 -106 -148.5 -162.5t-215.5 -56.5q-201 0 -286 105.5t-85 294.5z" />
<glyph unicode="v" horiz-adv-x="948" d="M4 1057h143l332 -928h4l328 928h133l-395 -1057h-137z" />
<glyph unicode="w" horiz-adv-x="1517" d="M16 1057h138l270 -905h4l258 905h145l259 -905h4l270 905h137l-340 -1057h-141l-260 889h-4l-258 -889h-142z" />
<glyph unicode="x" horiz-adv-x="985" d="M2 0l410 549l-379 508h162l301 -402l295 402h161l-381 -506l412 -551h-164l-332 444l-325 -444h-160z" />
<glyph unicode="y" horiz-adv-x="948" d="M4 1057h137l348 -901l326 901h129l-459 -1217q-25 -68 -49 -112.5t-55 -70.5t-72 -36t-102 -10q-39 0 -60.5 2t-37.5 8v109q23 -4 44 -7.5t44 -3.5q43 0 71.5 12.5t49 34t35 52t28.5 67.5l45 119z" />
<glyph unicode="z" horiz-adv-x="948" d="M31 0v104l690 844h-643v109h807v-92l-699 -856h727v-109h-882z" />
<glyph unicode="{" horiz-adv-x="681" d="M170 496v108q45 0 73.5 27.5t45 74t22.5 105.5t6 121v305q0 117 47.5 186.5t133.5 69.5h102v-109h-41q-31 0 -52.5 -17t-34.5 -47t-19.5 -68t-6.5 -78v-289q0 -84 -18 -144.5t-43 -100.5t-48.5 -60.5t-33.5 -26.5v-4q10 -6 33.5 -26.5t48.5 -60.5t43 -100.5t18 -144.5 v-287q0 -41 6.5 -79.5t19.5 -67.5t34.5 -46.5t52.5 -17.5h41v-108h-102q-86 0 -133.5 69.5t-47.5 186.5v301q0 61 -6 120.5t-22.5 105.5t-45 74t-73.5 28z" />
<glyph unicode="|" horiz-adv-x="454" d="M174 -436v2046h109v-2046h-109z" />
<glyph unicode="}" horiz-adv-x="681" d="M82 -281h41q31 0 52.5 17.5t34.5 46.5t19.5 67.5t6.5 79.5v287q0 84 18 144.5t43 100.5t48.5 60.5t33.5 26.5v4q-10 6 -33.5 26.5t-48.5 60.5t-43 100.5t-18 144.5v289q0 41 -6.5 78.5t-19.5 67.5t-34.5 47t-52.5 17h-41v109h102q86 0 133.5 -69.5t47.5 -186.5v-303 q0 -61 6 -120.5t22.5 -105.5t45 -74t73.5 -28v-108q-45 0 -73.5 -28t-45 -74t-22.5 -105.5t-6 -120.5v-303q0 -117 -47.5 -186.5t-133.5 -69.5h-102v108z" />
<glyph unicode="~" horiz-adv-x="1228" d="M141 461q16 33 39 64.5t53.5 56t71.5 40t92 15.5q57 0 117.5 -20.5t118.5 -45.5q59 -27 110.5 -47t90.5 -20q61 0 103 44t77 97l73 -74q-23 -33 -47 -64.5t-55 -56t-68.5 -40t-85.5 -15.5q-61 0 -116.5 20.5t-108.5 47.5q-53 25 -106.5 45t-112.5 20q-68 0 -107.5 -44 t-64.5 -97z" />
<glyph horiz-adv-x="0" />
<glyph unicode="&#xa1;" horiz-adv-x="493" d="M162 840v217h172v-217h-172zM178 31l31 661h78l30 -661v-420h-139v420z" />
<glyph unicode="&#xa2;" d="M111 528q0 106 28.5 202.5t85 171.5t138 123t190.5 58v183h80v-179q80 -2 149.5 -26.5t122.5 -69.5t88 -111.5t45 -154.5h-129q-25 117 -92 183.5t-184 70.5v-901q55 2 104 26.5t87 64.5t62.5 94t31.5 116h129q-25 -186 -135.5 -294t-278.5 -114v-207h-80v209 q-109 10 -190.5 58.5t-138 123t-85 171t-28.5 202.5zM240 528q0 -78 19.5 -152.5t58 -136t97 -104.5t138.5 -55v895q-80 -12 -138.5 -54t-97 -103.5t-58 -136.5t-19.5 -153z" />
<glyph unicode="&#xa3;" d="M88 80q45 37 87 79t74 88t50 99t18 115q0 47 -16 110.5t-41 104.5h-166v65h129q-47 76 -79.5 157t-32.5 173q0 111 39.5 189.5t105.5 131t149.5 77t172.5 24.5q229 0 354 -128t121 -357h-129q0 166 -87 271t-259 105q-66 0 -126.5 -19t-107.5 -59t-75.5 -100.5 t-28.5 -142.5q0 -53 12 -93t29.5 -76t39 -72t39.5 -81h328v-65h-291q23 -37 36 -96.5t13 -102.5q0 -57 -19 -110.5t-51 -100.5t-72 -88t-83 -74l4 -4q45 23 95.5 42.5t103.5 19.5q68 0 118 -12.5t91 -28.5q43 -16 84 -29.5t92 -13.5q66 0 129 33.5t106 81.5l66 -99 q-68 -59 -137.5 -91t-161.5 -32q-68 0 -119 12.5t-98 28t-96 28.5t-111 13q-39 0 -67.5 -6t-53 -16.5t-49 -25.5t-55.5 -34z" />
<glyph unicode="&#xa4;" d="M59 279l117 116q-53 66 -83 143.5t-30 170.5q0 180 111 315l-115 115l78 78l115 -115q63 53 145 84t174 31t170 -30t144 -83l112 113l78 -78l-110 -111q53 -66 83.5 -146.5t30.5 -172.5t-30.5 -173t-83.5 -147l110 -110l-78 -78l-112 112q-63 -53 -142 -82.5t-172 -29.5 q-92 0 -173 30.5t-146 83.5l-115 -114zM193 709q0 -84 29.5 -155t80.5 -123t121 -82t147 -30q78 0 147.5 30t121 82t81 123t29.5 155q0 82 -29.5 153.5t-81 123.5t-121 82t-147.5 30t-147.5 -30t-120.5 -82t-80.5 -123.5t-29.5 -153.5z" />
<glyph unicode="&#xa5;" d="M12 1462h148l407 -747l412 747h141l-432 -747h223v-92h-268l-12 -21v-149h280v-93h-280v-360h-129v360h-277v93h277v149l-13 21h-264v92h217z" />
<glyph unicode="&#xa6;" horiz-adv-x="454" d="M174 -180v510h109v-510h-109zM174 842v512h109v-512h-109z" />
<glyph unicode="&#xa7;" d="M92 690q0 51 17.5 95t48 81t71.5 64.5t86 46.5q-102 90 -102 223q0 70 29.5 125t79 92t111 56.5t126.5 19.5q174 0 276.5 -91t102.5 -272h-129q2 51 -14.5 98.5t-48 81t-76.5 54t-99 20.5q-43 0 -84 -10t-73.5 -32.5t-52 -56.5t-19.5 -83q0 -78 52 -133t130 -103 t170 -93.5t170 -100.5t130.5 -127t52.5 -172q0 -51 -17.5 -95t-48.5 -81t-72 -64.5t-86 -46.5q102 -90 103 -221q0 -72 -30 -126t-79 -91t-111.5 -56.5t-125.5 -19.5q-174 0 -276.5 93.5t-102.5 267.5h129q-2 -51 14 -97.5t48 -80t77 -54t98 -20.5q43 0 84 10t74 32.5 t52.5 56.5t19.5 83q0 76 -52.5 131.5t-130 103.5t-170 93t-170 100t-130 127t-52.5 172zM221 694q0 -78 57.5 -140t139.5 -114.5t172 -98.5t155 -91q74 31 123.5 83t49.5 138q0 53 -28 99t-72 85t-100 74t-114.5 66.5t-115 60.5t-99.5 59q-74 -31 -121 -83t-47 -138z" />
<glyph unicode="&#xa8;" horiz-adv-x="378" d="M-59 1239v207h137v-207h-137zM301 1239v207h139v-207h-139z" />
<glyph unicode="&#xa9;" horiz-adv-x="1638" d="M57 731q0 160 58.5 299t161 242.5t241.5 162t301 58.5t301.5 -58.5t241.5 -162t160.5 -242.5t58.5 -299q0 -162 -58.5 -300t-160.5 -240.5t-241.5 -161t-301.5 -58.5t-301 58.5t-241.5 161t-161 240.5t-58.5 300zM176 731q0 -137 48 -256t134 -207t204 -139t257 -51 q137 0 255 51t204 139t135 207t49 256t-49 256t-135 207t-204 139t-255 51q-139 0 -257 -51t-204 -139t-134 -207t-48 -256zM393 731q0 100 31 186.5t87 149.5t139 98t188 35q72 0 136 -20.5t115.5 -59.5t84 -97t43.5 -132h-105q-18 92 -89 154.5t-183 62.5 q-84 0 -146.5 -28.5t-105.5 -79t-64.5 -120t-21.5 -149.5t21.5 -148.5t64.5 -119.5t105.5 -80t146.5 -29q113 0 183.5 62.5t88.5 154.5h105q-10 -74 -43 -132t-84.5 -97t-116 -59.5t-135.5 -20.5q-104 0 -187.5 35t-139.5 98.5t-87 148.5t-31 187z" />
<glyph unicode="&#xaa;" horiz-adv-x="636" d="M-8 950q0 72 31.5 112t83 60.5t117 28.5t134.5 14q53 4 81 16.5t28 47.5q0 82 -53.5 109.5t-126.5 27.5q-72 0 -123 -35t-53 -108h-97q6 119 84 171t203 52q51 0 98 -8t84 -31t58.5 -62.5t21.5 -103.5v-352q0 -47 51 -47q14 0 27 6v-70q-10 -2 -24.5 -4t-30.5 -2 q-63 0 -81 29.5t-18 85.5h-4q-84 -133 -252 -133q-104 0 -171.5 46t-67.5 150zM86 954q0 -29 13.5 -50t34 -37.5t45 -24.5t48.5 -8q47 0 91 13t77 38.5t52.5 61.5t19.5 81v96h-4q-6 -14 -29.5 -19t-40.5 -9q-61 -10 -117.5 -17.5t-98.5 -21t-66.5 -37t-24.5 -66.5z" />
<glyph unicode="&#xab;" horiz-adv-x="872" d="M123 500v127l272 256v-138l-192 -182l192 -182v-137zM453 500v127l272 256v-138l-193 -182l193 -182v-137z" />
<glyph unicode="&#xac;" horiz-adv-x="1228" d="M100 666v108h1030v-547h-108v439h-922z" />
<glyph unicode="&#xad;" horiz-adv-x="757" d="M123 504v119h512v-119h-512z" />
<glyph unicode="&#xae;" horiz-adv-x="1638" d="M57 731q0 160 58.5 299t161 242.5t241.5 162t301 58.5t301.5 -58.5t241.5 -162t160.5 -242.5t58.5 -299q0 -162 -58.5 -300t-160.5 -240.5t-241.5 -161t-301.5 -58.5t-301 58.5t-241.5 161t-161 240.5t-58.5 300zM176 731q0 -137 48 -256t134 -207t204 -139t257 -51 q137 0 255 51t204 139t135 207t49 256t-49 256t-135 207t-204 139t-255 51q-139 0 -257 -51t-204 -139t-134 -207t-48 -256zM543 291v880h338q150 0 218 -62t68 -181q0 -59 -17 -101.5t-48 -72t-71 -47t-85 -25.5l262 -391h-127l-247 391h-183v-391h-108zM651 774h144 q49 0 97 3t85 17.5t59.5 46t22.5 87.5q0 45 -17.5 74.5t-47 47t-67.5 23.5t-77 6h-199v-305z" />
<glyph unicode="&#xaf;" horiz-adv-x="378" d="M-145 1298v93h671v-93h-671z" />
<glyph unicode="&#xb0;" horiz-adv-x="819" d="M115 1151q0 61 22.5 114.5t62.5 93.5t94 63.5t116 23.5q61 0 114.5 -23.5t93 -63.5t63.5 -93.5t24 -114.5t-24 -115.5t-63.5 -94.5t-93 -62.5t-114.5 -22.5t-115.5 22.5t-94.5 62.5t-62.5 94.5t-22.5 115.5zM195 1151q0 -92 61 -153.5t154 -61.5q92 0 153.5 61.5 t61.5 153.5t-61.5 153.5t-153.5 61.5t-153.5 -61.5t-61.5 -153.5z" />
<glyph unicode="&#xb1;" horiz-adv-x="1228" d="M100 0v109h1030v-109h-1030zM102 553v109h459v368h109v-368h460v-109h-460v-369h-109v369h-459z" />
<glyph unicode="&#xb2;" horiz-adv-x="681" d="M31 561q2 100 50 166t116.5 116t145.5 93t136 98q39 37 59.5 74t20.5 90q0 39 -17.5 70.5t-46 53t-66.5 33t-81 11.5q-55 0 -94 -19.5t-63.5 -52t-35 -74.5t-10.5 -87h-96q-4 141 72 227t235 86q129 0 214 -62.5t85 -193.5q0 -55 -19.5 -99t-52 -81t-75.5 -68t-88 -57 q-35 -20 -78 -44t-83 -52.5t-72.5 -65.5t-45.5 -82h508v-80h-618z" />
<glyph unicode="&#xb3;" horiz-adv-x="681" d="M16 844h97q-4 -98 55 -159.5t170 -61.5q43 0 86 12t75.5 35.5t53 58.5t20.5 78q0 86 -66.5 129t-158.5 43h-72v80h72q33 0 67 9t61.5 27.5t45 47t17.5 67.5q0 80 -60.5 118t-140.5 38q-100 0 -153.5 -59.5t-51.5 -151.5h-96q2 129 80 210t221 81q57 0 110.5 -13.5 t95.5 -41t66.5 -70.5t24.5 -102q0 -72 -41 -123.5t-117 -67.5v-4q92 -12 142.5 -68.5t50.5 -142.5q0 -66 -27 -117t-71 -84.5t-104 -51t-128 -17.5q-154 0 -244 76.5t-80 224.5z" />
<glyph unicode="&#xb4;" horiz-adv-x="378" d="M68 1204l215 289h159l-270 -289h-104z" />
<glyph unicode="&#xb5;" horiz-adv-x="1099" d="M121 -389v1446h129v-688q0 -143 64.5 -217t217.5 -74q82 0 142.5 36t99.5 95t57.5 136t18.5 157v555h129v-1057h-119v190h-4q-51 -106 -148.5 -162.5t-215.5 -56.5q-66 0 -128.5 16.5t-111.5 53.5v-430h-131z" />
<glyph unicode="&#xb6;" horiz-adv-x="1228" d="M135 1061q0 199 120 300t337 101h471v-1822h-129v1714h-246v-1714h-129v1032q-90 0 -168 30.5t-134 84t-89 124t-33 150.5z" />
<glyph unicode="&#xb7;" horiz-adv-x="569" d="M164 649q0 47 37 83t84 36q49 0 85 -37t36 -86q0 -47 -37 -83t-84 -36q-49 0 -85 37t-36 86z" />
<glyph unicode="&#xb8;" horiz-adv-x="378" d="M-10 -377l26 66q27 -10 72 -19.5t90 -9.5q43 0 76 20.5t33 67.5q0 37 -27 57.5t-61 20.5q-66 0 -105 -16l-33 30l125 160h72l-90 -117q37 6 78 5t76.5 -14t59.5 -42t24 -76t-20.5 -79.5t-53.5 -54t-73 -32t-79 -10.5q-49 0 -98 10.5t-92 32.5z" />
<glyph unicode="&#xb9;" horiz-adv-x="681" d="M72 1196v80q55 2 99 6t77 18.5t54.5 44t31.5 82.5h82v-866h-97v635h-247z" />
<glyph unicode="&#xba;" horiz-adv-x="684" d="M6 1100q0 72 21.5 135t62.5 110.5t101.5 74t140.5 26.5q86 0 151.5 -26.5t108.5 -74t64.5 -111t21.5 -134.5q0 -72 -21.5 -135.5t-64.5 -110.5t-108.5 -73.5t-151.5 -26.5q-80 0 -140.5 26.5t-101.5 73.5t-62.5 110.5t-21.5 135.5zM102 1100q0 -49 15.5 -97.5t45.5 -85 t75 -60t104 -23.5t104.5 23.5t75 60t45 85t15.5 97.5t-15.5 97t-45 85t-75 60.5t-104.5 23.5t-104 -23.5t-75 -60.5t-45.5 -85t-15.5 -97z" />
<glyph unicode="&#xbb;" horiz-adv-x="872" d="M147 244v137l193 182l-193 182v138l273 -256v-127zM477 244v137l193 182l-193 182v138l273 -256v-127z" />
<glyph unicode="&#xbc;" horiz-adv-x="1708" d="M98 1196v80q55 2 99.5 6t77 18.5t54 44t31.5 82.5h82v-866h-96v635h-248zM272 -68l928 1553h96l-925 -1553h-99zM885 205v80l436 581h90v-581h139v-80h-139v-205h-96v205h-430zM979 285h336v442h-4z" />
<glyph unicode="&#xbd;" horiz-adv-x="1708" d="M98 1196v80q55 2 99.5 6t77 18.5t54 44t31.5 82.5h82v-866h-96v635h-248zM272 -68l928 1553h96l-925 -1553h-99zM983 0q2 100 50 165.5t117 116t145.5 93.5t136.5 98q39 37 59 74t20 90q0 39 -17 70.5t-46 53t-67 33t-81 11.5q-55 0 -94 -19.5t-63.5 -52.5t-34.5 -75 t-10 -87h-97q-4 141 72 227.5t236 86.5q129 0 214 -62.5t85 -193.5q0 -55 -19.5 -99.5t-52.5 -81t-76 -67.5t-88 -57q-35 -20 -78 -44t-83 -52.5t-72.5 -65.5t-44.5 -82h508v-80h-619z" />
<glyph unicode="&#xbe;" horiz-adv-x="1708" d="M16 844h97q-4 -98 55 -159.5t170 -61.5q43 0 86 12t75.5 35.5t53 58.5t20.5 78q0 86 -66.5 129t-158.5 43h-72v80h72q33 0 67 9t61.5 27.5t45 47t17.5 67.5q0 80 -60.5 118t-140.5 38q-100 0 -153.5 -59.5t-51.5 -151.5h-96q2 129 80 210t221 81q57 0 110.5 -13.5 t95.5 -41t66.5 -70.5t24.5 -102q0 -72 -41 -123.5t-117 -67.5v-4q92 -12 142.5 -68.5t50.5 -142.5q0 -66 -27 -117t-71 -84.5t-104 -51t-128 -17.5q-154 0 -244 76.5t-80 224.5zM354 -68l928 1553h96l-925 -1553h-99zM885 205v80l436 581h90v-581h139v-80h-139v-205h-96v205 h-430zM979 285h336v442h-4z" />
<glyph unicode="&#xbf;" horiz-adv-x="1099" d="M111 -41q0 113 50 191.5t128 154.5q43 43 73.5 72t51 52.5t33 46t18.5 53t9 71.5t5 105h129q2 -94 -10 -158t-41 -115t-75 -98t-109 -107q-59 -53 -96 -118.5t-37 -143.5q0 -61 23.5 -112.5t63.5 -87t93 -56t112 -20.5q82 0 145.5 28.5t104.5 78.5t61.5 118t18.5 145h129 q0 -109 -30.5 -196.5t-91 -151t-146.5 -97.5t-197 -34q-86 0 -160.5 25.5t-132 75t-90 119t-32.5 159.5zM457 840v217h172v-217h-172z" />
<glyph unicode="&#xc0;" horiz-adv-x="1290" d="M-12 0l587 1462h156l574 -1462h-150l-178 455h-666l-176 -455h-147zM354 573h576l-283 750zM393 1868h160l215 -289h-104z" />
<glyph unicode="&#xc1;" horiz-adv-x="1290" d="M-12 0l587 1462h156l574 -1462h-150l-178 455h-666l-176 -455h-147zM354 573h576l-283 750zM524 1579l215 289h160l-270 -289h-105z" />
<glyph unicode="&#xc2;" horiz-adv-x="1290" d="M-12 0l587 1462h156l574 -1462h-150l-178 455h-666l-176 -455h-147zM342 1579l233 289h142l233 -289h-133l-176 209l-180 -209h-119zM354 573h576l-283 750z" />
<glyph unicode="&#xc3;" horiz-adv-x="1290" d="M-12 0l587 1462h156l574 -1462h-150l-178 455h-666l-176 -455h-147zM324 1620q4 37 18 71.5t36.5 62.5t54.5 45.5t73 17.5q43 0 82 -14.5t72.5 -31t63.5 -31t58 -14.5q47 0 71 29t36 70h78q-6 -35 -19.5 -70t-35 -62.5t-52.5 -45t-72 -17.5t-79.5 14.5t-73.5 33 t-65.5 32.5t-57.5 14q-47 0 -78 -26.5t-31 -77.5h-79zM354 573h576l-283 750z" />
<glyph unicode="&#xc4;" horiz-adv-x="1290" d="M-12 0l587 1462h156l574 -1462h-150l-178 455h-666l-176 -455h-147zM354 573h576l-283 750zM395 1614v207h140v-207h-140zM758 1614v207h139v-207h-139z" />
<glyph unicode="&#xc5;" horiz-adv-x="1290" d="M-12 0l587 1462h156l574 -1462h-150l-178 455h-666l-176 -455h-147zM354 573h576l-283 750zM428 1761q0 45 17.5 85t47 70t69.5 47t85 17t85 -17t69.5 -47t47 -70t17.5 -85t-17.5 -85t-47 -69.5t-69.5 -47t-85 -17.5t-85 17.5t-69.5 47t-47 69.5t-17.5 85zM508 1761 q0 -59 40 -99t99 -40t99 40t40 99t-39.5 99.5t-99.5 40.5q-59 0 -99 -40.5t-40 -99.5z" />
<glyph unicode="&#xc6;" horiz-adv-x="1857" d="M-12 0l764 1462h1050v-119h-751v-528h704v-119h-704v-577h759v-119h-899v463h-530l-238 -463h-155zM442 582h469v761h-82z" />
<glyph unicode="&#xc7;" horiz-adv-x="1441" d="M78 731q0 150 43 288t129 243.5t216 168t302 62.5q104 0 203.5 -30.5t180.5 -91t135 -148.5t69 -203h-139q-18 84 -60.5 150.5t-103 111.5t-133 68.5t-152.5 23.5q-145 0 -249.5 -55t-171 -146.5t-98.5 -207t-32 -234.5q0 -121 32 -235.5t98.5 -205.5t171 -146.5 t249.5 -55.5q100 0 183 37t142.5 100.5t96.5 148.5t47 183h139q-14 -135 -63 -243.5t-127 -184.5t-183.5 -117t-234.5 -41h-2l-68 -88q37 6 78 5t77 -14t59.5 -42t23.5 -76t-20.5 -79.5t-53.5 -54t-72.5 -32t-78.5 -10.5q-49 0 -98.5 10.5t-94.5 32.5l29 66q27 -10 72 -19.5 t90 -9.5q43 0 75.5 20.5t32.5 67.5q0 37 -26.5 57.5t-61.5 20.5q-66 0 -104 -16l-33 30l104 135q-156 12 -271.5 79t-192 169.5t-115.5 234.5t-39 273z" />
<glyph unicode="&#xc8;" horiz-adv-x="1214" d="M147 0v1462h1010v-119h-870v-528h815v-119h-815v-577h880v-119h-1020zM354 1868h160l215 -289h-104z" />
<glyph unicode="&#xc9;" horiz-adv-x="1214" d="M147 0v1462h1010v-119h-870v-528h815v-119h-815v-577h880v-119h-1020zM485 1579l215 289h160l-270 -289h-105z" />
<glyph unicode="&#xca;" horiz-adv-x="1214" d="M147 0v1462h1010v-119h-870v-528h815v-119h-815v-577h880v-119h-1020zM303 1579l234 289h141l233 -289h-133l-176 209l-180 -209h-119z" />
<glyph unicode="&#xcb;" horiz-adv-x="1214" d="M147 0v1462h1010v-119h-870v-528h815v-119h-815v-577h880v-119h-1020zM356 1614v207h140v-207h-140zM719 1614v207h139v-207h-139z" />
<glyph unicode="&#xcc;" horiz-adv-x="454" d="M-23 1868h158l215 -289h-104zM158 0v1462h139v-1462h-139z" />
<glyph unicode="&#xcd;" horiz-adv-x="454" d="M106 1579l216 289h159l-270 -289h-105zM158 0v1462h139v-1462h-139z" />
<glyph unicode="&#xce;" horiz-adv-x="454" d="M-74 1579l232 289h141l233 -289h-133l-176 209l-180 -209h-117zM158 0v1462h139v-1462h-139z" />
<glyph unicode="&#xcf;" horiz-adv-x="454" d="M-20 1614v207h137v-207h-137zM158 0v1462h139v-1462h-139zM340 1614v207h139v-207h-139z" />
<glyph unicode="&#xd0;" horiz-adv-x="1402" d="M0 713v92h147v657h506q672 0 672 -731t-672 -731h-506v713h-147zM287 119h297q158 0 271.5 33.5t187 107.5t108.5 190.5t35 280.5t-35 280.5t-108.5 190.5t-187.5 107.5t-271 33.5h-297v-538h483v-92h-483v-594z" />
<glyph unicode="&#xd1;" horiz-adv-x="1441" d="M145 0v1462h156l852 -1237h4v1237h139v-1462h-155l-852 1237h-4v-1237h-140zM399 1620q4 37 18.5 71.5t37 62.5t54.5 45.5t73 17.5q43 0 81.5 -14.5t72.5 -31t63.5 -31t58.5 -14.5q47 0 70.5 29t36.5 70h77q-6 -35 -19 -70t-34.5 -62.5t-52.5 -45t-72 -17.5t-80 14.5 t-73.5 33t-65.5 32.5t-57 14q-47 0 -78 -26.5t-31 -77.5h-80z" />
<glyph unicode="&#xd2;" horiz-adv-x="1517" d="M70 731q0 150 43 288t129 243.5t216 168t302 62.5t301 -62.5t215 -168t129 -243.5t43 -288q0 -152 -43 -289t-129 -241.5t-215 -167t-301 -62.5t-302 62.5t-216 167t-129 241.5t-43 289zM209 731q0 -121 31.5 -235.5t98.5 -205.5t171 -146.5t250 -55.5q143 0 247.5 55.5 t171 146.5t98.5 205.5t32 235.5q0 119 -32 234.5t-98.5 207t-171 146.5t-247.5 55q-145 0 -249.5 -55t-171.5 -146.5t-98.5 -207t-31.5 -234.5zM506 1868h160l215 -289h-105z" />
<glyph unicode="&#xd3;" horiz-adv-x="1517" d="M70 731q0 150 43 288t129 243.5t216 168t302 62.5t301 -62.5t215 -168t129 -243.5t43 -288q0 -152 -43 -289t-129 -241.5t-215 -167t-301 -62.5t-302 62.5t-216 167t-129 241.5t-43 289zM209 731q0 -121 31.5 -235.5t98.5 -205.5t171 -146.5t250 -55.5q143 0 247.5 55.5 t171 146.5t98.5 205.5t32 235.5q0 119 -32 234.5t-98.5 207t-171 146.5t-247.5 55q-145 0 -249.5 -55t-171.5 -146.5t-98.5 -207t-31.5 -234.5zM637 1579l215 289h160l-271 -289h-104z" />
<glyph unicode="&#xd4;" horiz-adv-x="1517" d="M70 731q0 150 43 288t129 243.5t216 168t302 62.5t301 -62.5t215 -168t129 -243.5t43 -288q0 -152 -43 -289t-129 -241.5t-215 -167t-301 -62.5t-302 62.5t-216 167t-129 241.5t-43 289zM209 731q0 -121 31.5 -235.5t98.5 -205.5t171 -146.5t250 -55.5q143 0 247.5 55.5 t171 146.5t98.5 205.5t32 235.5q0 119 -32 234.5t-98.5 207t-171 146.5t-247.5 55q-145 0 -249.5 -55t-171.5 -146.5t-98.5 -207t-31.5 -234.5zM455 1579l233 289h141l234 -289h-133l-176 209l-181 -209h-118z" />
<glyph unicode="&#xd5;" horiz-adv-x="1517" d="M70 731q0 150 43 288t129 243.5t216 168t302 62.5t301 -62.5t215 -168t129 -243.5t43 -288q0 -152 -43 -289t-129 -241.5t-215 -167t-301 -62.5t-302 62.5t-216 167t-129 241.5t-43 289zM209 731q0 -121 31.5 -235.5t98.5 -205.5t171 -146.5t250 -55.5q143 0 247.5 55.5 t171 146.5t98.5 205.5t32 235.5q0 119 -32 234.5t-98.5 207t-171 146.5t-247.5 55q-145 0 -249.5 -55t-171.5 -146.5t-98.5 -207t-31.5 -234.5zM436 1620q4 37 18.5 71.5t37 62.5t54.5 45.5t72 17.5q43 0 82 -14.5t73 -31t63.5 -31t58.5 -14.5q47 0 70.5 29t35.5 70h78 q-6 -35 -19 -70t-34.5 -62.5t-52.5 -45t-72 -17.5t-80 14.5t-73.5 33t-65.5 32.5t-57 14q-47 0 -78 -26.5t-31 -77.5h-80z" />
<glyph unicode="&#xd6;" horiz-adv-x="1517" d="M70 731q0 150 43 288t129 243.5t216 168t302 62.5t301 -62.5t215 -168t129 -243.5t43 -288q0 -152 -43 -289t-129 -241.5t-215 -167t-301 -62.5t-302 62.5t-216 167t-129 241.5t-43 289zM209 731q0 -121 31.5 -235.5t98.5 -205.5t171 -146.5t250 -55.5q143 0 247.5 55.5 t171 146.5t98.5 205.5t32 235.5q0 119 -32 234.5t-98.5 207t-171 146.5t-247.5 55q-145 0 -249.5 -55t-171.5 -146.5t-98.5 -207t-31.5 -234.5zM508 1614v207h139v-207h-139zM870 1614v207h140v-207h-140z" />
<glyph unicode="&#xd7;" horiz-adv-x="1228" d="M152 127l385 387l-385 387l75 76l387 -387l387 387l76 -76l-387 -387l387 -387l-76 -76l-387 385l-387 -385z" />
<glyph unicode="&#xd8;" horiz-adv-x="1517" d="M70 731q0 150 43 288t129 243.5t216 168t302 62.5q154 0 269.5 -47t201.5 -133l145 160l54 -48l-150 -165q86 -104 127 -241.5t41 -287.5q0 -152 -43 -289t-129 -241.5t-215 -167t-301 -62.5q-154 0 -270.5 47.5t-202.5 133.5l-156 -175l-55 50l162 180 q-86 106 -127 241.5t-41 282.5zM209 731q0 -117 28.5 -226.5t90.5 -197.5l815 907q-66 72 -160 116t-223 44q-145 0 -249.5 -55t-171.5 -146.5t-98.5 -207t-31.5 -234.5zM375 250q68 -76 162 -119t223 -43q143 0 247.5 55.5t171 146.5t98.5 205.5t32 235.5q0 117 -29 227.5 t-92 198.5z" />
<glyph unicode="&#xd9;" horiz-adv-x="1402" d="M133 526v936h139v-905q0 -127 29 -216t84 -145.5t134 -82t181 -25.5t182.5 25.5t135.5 82t83.5 145.5t28.5 216v905h140v-936q0 -115 -32 -215t-100.5 -176t-176 -120t-261.5 -44q-152 0 -259 44t-175.5 120t-100.5 176.5t-32 214.5zM449 1868h159l215 -289h-104z" />
<glyph unicode="&#xda;" horiz-adv-x="1402" d="M133 526v936h139v-905q0 -127 29 -216t84 -145.5t134 -82t181 -25.5t182.5 25.5t135.5 82t83.5 145.5t28.5 216v905h140v-936q0 -115 -32 -215t-100.5 -176t-176 -120t-261.5 -44q-152 0 -259 44t-175.5 120t-100.5 176.5t-32 214.5zM580 1579l215 289h159l-270 -289 h-104z" />
<glyph unicode="&#xdb;" horiz-adv-x="1402" d="M133 526v936h139v-905q0 -127 29 -216t84 -145.5t134 -82t181 -25.5t182.5 25.5t135.5 82t83.5 145.5t28.5 216v905h140v-936q0 -115 -32 -215t-100.5 -176t-176 -120t-261.5 -44q-152 0 -259 44t-175.5 120t-100.5 176.5t-32 214.5zM397 1579l234 289h141l234 -289h-134 l-176 209l-180 -209h-119z" />
<glyph unicode="&#xdc;" horiz-adv-x="1402" d="M133 526v936h139v-905q0 -127 29 -216t84 -145.5t134 -82t181 -25.5t182.5 25.5t135.5 82t83.5 145.5t28.5 216v905h140v-936q0 -115 -32 -215t-100.5 -176t-176 -120t-261.5 -44q-152 0 -259 44t-175.5 120t-100.5 176.5t-32 214.5zM451 1614v207h139v-207h-139z M813 1614v207h139v-207h-139z" />
<glyph unicode="&#xdd;" horiz-adv-x="1251" d="M-18 1462h163l482 -741l479 741h166l-578 -860v-602h-139v602zM504 1579l215 289h160l-271 -289h-104z" />
<glyph unicode="&#xde;" horiz-adv-x="1290" d="M147 0v1462h140v-239h510q98 0 178 -28t137 -82t88 -132t31 -176t-31 -176t-88 -132.5t-137 -82t-178 -27.5h-510v-387h-140zM287 506h479q145 0 235.5 73.5t90.5 225.5t-90.5 225.5t-235.5 73.5h-479v-598z" />
<glyph unicode="&#xdf;" horiz-adv-x="1099" d="M125 0v1096q0 100 29.5 175t83 124t128 73.5t166.5 24.5q82 0 155 -23.5t128 -69.5t87 -112.5t32 -154.5q0 -111 -60.5 -197t-171.5 -111v-4q74 -6 131.5 -39.5t96.5 -86t58.5 -118t19.5 -135.5q0 -115 -35 -199.5t-95.5 -142t-143.5 -86t-181 -28.5h-51q-12 0 -24.5 1 t-26.5 3v110q25 -4 48 -6t48 -2q63 0 122.5 17.5t105.5 57.5t75 101.5t29 151.5q0 106 -32 171.5t-88.5 101.5t-135 48.5t-172.5 12.5v108q68 0 131 12.5t113 42t80 81t30 130.5q0 57 -21.5 104.5t-58.5 81.5t-86 52t-104 18q-154 0 -217.5 -75.5t-63.5 -223.5v-1085h-129z " />
<glyph unicode="&#xe0;" horiz-adv-x="1062" d="M66 279q0 111 49 173t130 96t182 46t206 24q39 4 70.5 11.5t52 22t32 41t11.5 69.5q0 66 -21.5 107.5t-59.5 66.5t-88 34t-108 9q-123 0 -200.5 -58.5t-81.5 -187.5h-129q12 186 127.5 270t300.5 84q70 0 139.5 -13t124.5 -50t90 -103.5t35 -172.5v-562q0 -78 76 -77 q25 0 40 8v-109q-23 -4 -40 -6t-43 -2q-49 0 -79 13.5t-46.5 38t-21.5 58t-5 74.5h-4q-35 -51 -71 -91t-80 -66.5t-101 -41t-133 -14.5q-74 0 -138.5 17.5t-112.5 55.5t-75.5 96.5t-27.5 138.5zM195 287q0 -49 19 -87t52 -66t75 -42t89 -14q74 0 141.5 22.5t117.5 65.5 t80 104.5t30 139.5v168h-4q-12 -23 -47 -33t-62 -15q-82 -14 -169 -25t-158.5 -33.5t-117.5 -66t-46 -118.5zM279 1493h159l215 -289h-104z" />
<glyph unicode="&#xe1;" horiz-adv-x="1062" d="M66 279q0 111 49 173t130 96t182 46t206 24q39 4 70.5 11.5t52 22t32 41t11.5 69.5q0 66 -21.5 107.5t-59.5 66.5t-88 34t-108 9q-123 0 -200.5 -58.5t-81.5 -187.5h-129q12 186 127.5 270t300.5 84q70 0 139.5 -13t124.5 -50t90 -103.5t35 -172.5v-562q0 -78 76 -77 q25 0 40 8v-109q-23 -4 -40 -6t-43 -2q-49 0 -79 13.5t-46.5 38t-21.5 58t-5 74.5h-4q-35 -51 -71 -91t-80 -66.5t-101 -41t-133 -14.5q-74 0 -138.5 17.5t-112.5 55.5t-75.5 96.5t-27.5 138.5zM195 287q0 -49 19 -87t52 -66t75 -42t89 -14q74 0 141.5 22.5t117.5 65.5 t80 104.5t30 139.5v168h-4q-12 -23 -47 -33t-62 -15q-82 -14 -169 -25t-158.5 -33.5t-117.5 -66t-46 -118.5zM410 1204l215 289h159l-270 -289h-104z" />
<glyph unicode="&#xe2;" horiz-adv-x="1062" d="M66 279q0 111 49 173t130 96t182 46t206 24q39 4 70.5 11.5t52 22t32 41t11.5 69.5q0 66 -21.5 107.5t-59.5 66.5t-88 34t-108 9q-123 0 -200.5 -58.5t-81.5 -187.5h-129q12 186 127.5 270t300.5 84q70 0 139.5 -13t124.5 -50t90 -103.5t35 -172.5v-562q0 -78 76 -77 q25 0 40 8v-109q-23 -4 -40 -6t-43 -2q-49 0 -79 13.5t-46.5 38t-21.5 58t-5 74.5h-4q-35 -51 -71 -91t-80 -66.5t-101 -41t-133 -14.5q-74 0 -138.5 17.5t-112.5 55.5t-75.5 96.5t-27.5 138.5zM195 287q0 -49 19 -87t52 -66t75 -42t89 -14q74 0 141.5 22.5t117.5 65.5 t80 104.5t30 139.5v168h-4q-12 -23 -47 -33t-62 -15q-82 -14 -169 -25t-158.5 -33.5t-117.5 -66t-46 -118.5zM227 1204l234 289h141l234 -289h-134l-176 209l-180 -209h-119z" />
<glyph unicode="&#xe3;" horiz-adv-x="1062" d="M66 279q0 111 49 173t130 96t182 46t206 24q39 4 70.5 11.5t52 22t32 41t11.5 69.5q0 66 -21.5 107.5t-59.5 66.5t-88 34t-108 9q-123 0 -200.5 -58.5t-81.5 -187.5h-129q12 186 127.5 270t300.5 84q70 0 139.5 -13t124.5 -50t90 -103.5t35 -172.5v-562q0 -78 76 -77 q25 0 40 8v-109q-23 -4 -40 -6t-43 -2q-49 0 -79 13.5t-46.5 38t-21.5 58t-5 74.5h-4q-35 -51 -71 -91t-80 -66.5t-101 -41t-133 -14.5q-74 0 -138.5 17.5t-112.5 55.5t-75.5 96.5t-27.5 138.5zM195 287q0 -49 19 -87t52 -66t75 -42t89 -14q74 0 141.5 22.5t117.5 65.5 t80 104.5t30 139.5v168h-4q-12 -23 -47 -33t-62 -15q-82 -14 -169 -25t-158.5 -33.5t-117.5 -66t-46 -118.5zM209 1245q4 37 18.5 72t37 62.5t54 45t72.5 17.5q43 0 82 -14.5t73 -31t63.5 -30.5t58.5 -14q47 0 70.5 28.5t35.5 69.5h78q-6 -35 -19.5 -69.5t-35 -62.5 t-52 -45.5t-71.5 -17.5t-80 14.5t-74 33t-65.5 33t-57.5 14.5q-47 0 -77.5 -27t-30.5 -78h-80z" />
<glyph unicode="&#xe4;" horiz-adv-x="1062" d="M66 279q0 111 49 173t130 96t182 46t206 24q39 4 70.5 11.5t52 22t32 41t11.5 69.5q0 66 -21.5 107.5t-59.5 66.5t-88 34t-108 9q-123 0 -200.5 -58.5t-81.5 -187.5h-129q12 186 127.5 270t300.5 84q70 0 139.5 -13t124.5 -50t90 -103.5t35 -172.5v-562q0 -78 76 -77 q25 0 40 8v-109q-23 -4 -40 -6t-43 -2q-49 0 -79 13.5t-46.5 38t-21.5 58t-5 74.5h-4q-35 -51 -71 -91t-80 -66.5t-101 -41t-133 -14.5q-74 0 -138.5 17.5t-112.5 55.5t-75.5 96.5t-27.5 138.5zM195 287q0 -49 19 -87t52 -66t75 -42t89 -14q74 0 141.5 22.5t117.5 65.5 t80 104.5t30 139.5v168h-4q-12 -23 -47 -33t-62 -15q-82 -14 -169 -25t-158.5 -33.5t-117.5 -66t-46 -118.5zM281 1239v207h139v-207h-139zM643 1239v207h139v-207h-139z" />
<glyph unicode="&#xe5;" horiz-adv-x="1062" d="M66 279q0 111 49 173t130 96t182 46t206 24q39 4 70.5 11.5t52 22t32 41t11.5 69.5q0 66 -21.5 107.5t-59.5 66.5t-88 34t-108 9q-123 0 -200.5 -58.5t-81.5 -187.5h-129q12 186 127.5 270t300.5 84q70 0 139.5 -13t124.5 -50t90 -103.5t35 -172.5v-562q0 -78 76 -77 q25 0 40 8v-109q-23 -4 -40 -6t-43 -2q-49 0 -79 13.5t-46.5 38t-21.5 58t-5 74.5h-4q-35 -51 -71 -91t-80 -66.5t-101 -41t-133 -14.5q-74 0 -138.5 17.5t-112.5 55.5t-75.5 96.5t-27.5 138.5zM195 287q0 -49 19 -87t52 -66t75 -42t89 -14q74 0 141.5 22.5t117.5 65.5 t80 104.5t30 139.5v168h-4q-12 -23 -47 -33t-62 -15q-82 -14 -169 -25t-158.5 -33.5t-117.5 -66t-46 -118.5zM313 1386q0 45 17.5 85t47.5 70t69.5 47.5t84.5 17.5t85 -17.5t70 -47.5t47.5 -69.5t17.5 -85.5q0 -45 -17.5 -84.5t-47.5 -69.5t-69.5 -47.5t-85.5 -17.5 q-45 0 -84.5 17.5t-69.5 47.5t-47.5 69.5t-17.5 84.5zM393 1386q0 -59 40 -99t99 -40t99.5 40t40.5 99t-40 99.5t-100 40.5q-59 0 -99 -40.5t-40 -99.5z" />
<glyph unicode="&#xe6;" horiz-adv-x="1781" d="M66 279q0 111 49 173t130 96t182 46t206 24q39 4 70.5 11.5t52 22t32 41t11.5 69.5q0 66 -21.5 107.5t-59.5 66.5t-88 34t-108 9q-123 0 -200.5 -58.5t-81.5 -187.5h-129q12 186 127.5 270t300.5 84q53 0 111.5 -9t108.5 -32.5t86 -66.5t46 -111h4q20 55 59 96.5t89.5 69 t107.5 40.5t115 13q131 0 218 -49t140 -132t75.5 -190.5t22.5 -221.5h-794q-6 -84 12 -160t61 -132.5t111 -90t160 -33.5q131 0 207.5 69.5t105.5 194.5h129q-41 -180 -157.5 -275.5t-303.5 -95.5q-141 0 -240.5 64.5t-146.5 200.5h-4q-12 -68 -56 -117t-106.5 -82 t-136.5 -49.5t-143 -16.5q-74 0 -138.5 17.5t-112.5 55.5t-75.5 96.5t-27.5 138.5zM195 287q0 -49 19 -87t52 -66t75 -42t89 -14q74 0 141.5 22.5t117.5 65.5t80 104.5t30 139.5v168h-4q-12 -23 -47 -33t-62 -15q-82 -14 -169 -25t-158.5 -33.5t-117.5 -66t-46 -118.5z M928 602h665q0 74 -23.5 141.5t-66.5 119.5t-105.5 84t-137.5 32q-80 0 -142.5 -30.5t-105.5 -83t-64.5 -121t-19.5 -142.5z" />
<glyph unicode="&#xe7;" horiz-adv-x="1062" d="M70 528q0 113 32.5 215.5t96 178t157 120.5t213.5 45q170 0 288 -90t140 -272h-129q-27 119 -98.5 186.5t-200.5 67.5q-92 0 -161.5 -39t-115.5 -102.5t-69.5 -144.5t-23.5 -165t23.5 -164.5t69.5 -144t115.5 -102.5t161.5 -39q59 0 112.5 22.5t94.5 62.5t67.5 95 t33.5 121h129q-27 -193 -140.5 -298.5t-287.5 -109.5l-68 -88q37 6 78 5t76.5 -14t59.5 -42t24 -76t-20.5 -79.5t-53.5 -54t-73 -32t-79 -10.5q-49 0 -98 10.5t-94 32.5l28 66q27 -10 72 -19.5t90 -9.5q43 0 76 20.5t33 67.5q0 37 -27 57.5t-61 20.5q-66 0 -105 -16l-33 30 l105 135q-106 12 -188 60.5t-137.5 122t-84 169t-28.5 201.5z" />
<glyph unicode="&#xe8;" horiz-adv-x="1062" d="M70 528q0 104 27.5 205t85 179.5t147.5 126.5t217 48t217 -51t146.5 -134t81 -190.5t20.5 -217.5h-813q0 -72 19.5 -146t62.5 -133t108.5 -98t157.5 -39q141 0 221 73.5t111 196.5h129q-41 -180 -150.5 -278.5t-310.5 -98.5q-127 0 -217 44t-147.5 121t-85 177.5 t-27.5 214.5zM199 602h684q-2 74 -25.5 141.5t-66.5 119.5t-104.5 84t-139.5 32q-80 0 -141.5 -32t-104.5 -84t-68.5 -120.5t-33.5 -140.5zM279 1493h159l215 -289h-104z" />
<glyph unicode="&#xe9;" horiz-adv-x="1062" d="M70 528q0 104 27.5 205t85 179.5t147.5 126.5t217 48t217 -51t146.5 -134t81 -190.5t20.5 -217.5h-813q0 -72 19.5 -146t62.5 -133t108.5 -98t157.5 -39q141 0 221 73.5t111 196.5h129q-41 -180 -150.5 -278.5t-310.5 -98.5q-127 0 -217 44t-147.5 121t-85 177.5 t-27.5 214.5zM199 602h684q-2 74 -25.5 141.5t-66.5 119.5t-104.5 84t-139.5 32q-80 0 -141.5 -32t-104.5 -84t-68.5 -120.5t-33.5 -140.5zM410 1204l215 289h159l-270 -289h-104z" />
<glyph unicode="&#xea;" horiz-adv-x="1062" d="M70 528q0 104 27.5 205t85 179.5t147.5 126.5t217 48t217 -51t146.5 -134t81 -190.5t20.5 -217.5h-813q0 -72 19.5 -146t62.5 -133t108.5 -98t157.5 -39q141 0 221 73.5t111 196.5h129q-41 -180 -150.5 -278.5t-310.5 -98.5q-127 0 -217 44t-147.5 121t-85 177.5 t-27.5 214.5zM199 602h684q-2 74 -25.5 141.5t-66.5 119.5t-104.5 84t-139.5 32q-80 0 -141.5 -32t-104.5 -84t-68.5 -120.5t-33.5 -140.5zM227 1204l234 289h141l234 -289h-134l-176 209l-180 -209h-119z" />
<glyph unicode="&#xeb;" horiz-adv-x="1062" d="M70 528q0 104 27.5 205t85 179.5t147.5 126.5t217 48t217 -51t146.5 -134t81 -190.5t20.5 -217.5h-813q0 -72 19.5 -146t62.5 -133t108.5 -98t157.5 -39q141 0 221 73.5t111 196.5h129q-41 -180 -150.5 -278.5t-310.5 -98.5q-127 0 -217 44t-147.5 121t-85 177.5 t-27.5 214.5zM199 602h684q-2 74 -25.5 141.5t-66.5 119.5t-104.5 84t-139.5 32q-80 0 -141.5 -32t-104.5 -84t-68.5 -120.5t-33.5 -140.5zM281 1239v207h139v-207h-139zM643 1239v207h139v-207h-139z" />
<glyph unicode="&#xec;" horiz-adv-x="378" d="M-61 1493h157l215 -289h-104zM125 0v1057h129v-1057h-129z" />
<glyph unicode="&#xed;" horiz-adv-x="378" d="M68 1204l215 289h159l-270 -289h-104zM125 0v1057h129v-1057h-129z" />
<glyph unicode="&#xee;" horiz-adv-x="378" d="M-113 1204l232 289h141l234 -289h-134l-176 209l-180 -209h-117zM125 0v1057h129v-1057h-129z" />
<glyph unicode="&#xef;" horiz-adv-x="378" d="M-59 1239v207h137v-207h-137zM125 0v1057h129v-1057h-129zM301 1239v207h139v-207h-139z" />
<glyph unicode="&#xf0;" d="M70 510q0 106 31.5 201.5t94 168t152.5 114.5t207 42q76 0 151.5 -17.5t120.5 -64.5h4q-51 98 -118.5 176t-153.5 146l-215 -121l-68 66l205 114q-47 31 -94 59.5t-96 53.5l74 72q53 -29 107 -61t106 -70l233 131l68 -66l-224 -125q86 -70 159 -153.5t127 -183t85 -215 t31 -249.5q0 -117 -31 -218t-92.5 -176t-155.5 -119t-223 -44q-123 0 -215 41t-151.5 114t-89 171t-29.5 213zM199 508q0 -84 20.5 -162t64.5 -137t112.5 -95t164.5 -36q90 0 158.5 31.5t115 90t70 137.5t23.5 175q0 76 -20.5 150.5t-63.5 134t-112 95.5t-167 36t-167.5 -34 t-113.5 -91.5t-64.5 -134t-20.5 -160.5z" />
<glyph unicode="&#xf1;" horiz-adv-x="1099" d="M121 0v1057h129v-183h4q37 98 131 155.5t207 57.5q111 0 185.5 -28.5t119.5 -80.5t63.5 -128t18.5 -170v-680h-129v659q0 68 -12.5 126.5t-43 101.5t-83 67.5t-129.5 24.5q-78 0 -139.5 -27.5t-104.5 -76t-65.5 -115t-22.5 -144.5v-616h-129zM227 1245q4 37 18.5 72 t37 62.5t54.5 45t73 17.5q43 0 81.5 -14.5t72.5 -31t63.5 -30.5t58.5 -14q47 0 70.5 28.5t36.5 69.5h77q-6 -35 -19 -69.5t-34.5 -62.5t-52.5 -45.5t-72 -17.5t-80 14.5t-73.5 33t-65.5 33t-57 14.5q-47 0 -78 -27t-31 -78h-80z" />
<glyph unicode="&#xf2;" d="M70 528q0 113 32.5 215.5t96 178t156.5 120.5t214 45t214.5 -45t157 -120.5t96 -178t32.5 -215.5q0 -115 -32.5 -216t-96 -177t-157 -120t-214.5 -44t-214 44t-156.5 120t-96 177.5t-32.5 215.5zM199 528q0 -84 23.5 -164.5t69.5 -144t115.5 -102.5t161.5 -39t162 39 t116 102.5t69.5 144t23.5 164.5t-23.5 165t-69.5 144.5t-116 102.5t-162 39t-161.5 -39t-115.5 -102.5t-69.5 -144.5t-23.5 -165zM317 1493h160l215 -289h-104z" />
<glyph unicode="&#xf3;" d="M70 528q0 113 32.5 215.5t96 178t156.5 120.5t214 45t214.5 -45t157 -120.5t96 -178t32.5 -215.5q0 -115 -32.5 -216t-96 -177t-157 -120t-214.5 -44t-214 44t-156.5 120t-96 177.5t-32.5 215.5zM199 528q0 -84 23.5 -164.5t69.5 -144t115.5 -102.5t161.5 -39t162 39 t116 102.5t69.5 144t23.5 164.5t-23.5 165t-69.5 144.5t-116 102.5t-162 39t-161.5 -39t-115.5 -102.5t-69.5 -144.5t-23.5 -165zM449 1204l215 289h159l-270 -289h-104z" />
<glyph unicode="&#xf4;" d="M70 528q0 113 32.5 215.5t96 178t156.5 120.5t214 45t214.5 -45t157 -120.5t96 -178t32.5 -215.5q0 -115 -32.5 -216t-96 -177t-157 -120t-214.5 -44t-214 44t-156.5 120t-96 177.5t-32.5 215.5zM199 528q0 -84 23.5 -164.5t69.5 -144t115.5 -102.5t161.5 -39t162 39 t116 102.5t69.5 144t23.5 164.5t-23.5 165t-69.5 144.5t-116 102.5t-162 39t-161.5 -39t-115.5 -102.5t-69.5 -144.5t-23.5 -165zM266 1204l234 289h141l233 -289h-133l-176 209l-180 -209h-119z" />
<glyph unicode="&#xf5;" d="M70 528q0 113 32.5 215.5t96 178t156.5 120.5t214 45t214.5 -45t157 -120.5t96 -178t32.5 -215.5q0 -115 -32.5 -216t-96 -177t-157 -120t-214.5 -44t-214 44t-156.5 120t-96 177.5t-32.5 215.5zM199 528q0 -84 23.5 -164.5t69.5 -144t115.5 -102.5t161.5 -39t162 39 t116 102.5t69.5 144t23.5 164.5t-23.5 165t-69.5 144.5t-116 102.5t-162 39t-161.5 -39t-115.5 -102.5t-69.5 -144.5t-23.5 -165zM248 1245q4 37 18.5 72t37 62.5t54 45t72.5 17.5q43 0 82 -14.5t72.5 -31t63.5 -30.5t59 -14q47 0 70.5 28.5t35.5 69.5h78 q-6 -35 -19.5 -69.5t-35 -62.5t-52 -45.5t-71.5 -17.5t-80 14.5t-74 33t-65.5 33t-57.5 14.5q-47 0 -77.5 -27t-30.5 -78h-80z" />
<glyph unicode="&#xf6;" d="M70 528q0 113 32.5 215.5t96 178t156.5 120.5t214 45t214.5 -45t157 -120.5t96 -178t32.5 -215.5q0 -115 -32.5 -216t-96 -177t-157 -120t-214.5 -44t-214 44t-156.5 120t-96 177.5t-32.5 215.5zM199 528q0 -84 23.5 -164.5t69.5 -144t115.5 -102.5t161.5 -39t162 39 t116 102.5t69.5 144t23.5 164.5t-23.5 165t-69.5 144.5t-116 102.5t-162 39t-161.5 -39t-115.5 -102.5t-69.5 -144.5t-23.5 -165zM319 1239v207h140v-207h-140zM682 1239v207h139v-207h-139z" />
<glyph unicode="&#xf7;" horiz-adv-x="1228" d="M100 461v108h1030v-108h-1030zM500 102q0 47 33.5 81t80.5 34t81 -33.5t34 -81.5q0 -43 -33.5 -77.5t-79.5 -34.5q-47 0 -81.5 32.5t-34.5 79.5zM500 928q0 47 33.5 80.5t80.5 33.5t81 -33.5t34 -80.5q0 -43 -33.5 -79t-79.5 -36q-47 0 -81.5 34t-34.5 81z" />
<glyph unicode="&#xf8;" d="M59 18l125 138q-57 74 -85.5 170t-28.5 202q0 113 32.5 215.5t96 178t157 120.5t213.5 45q111 0 199 -36.5t150 -102.5l106 115l45 -41l-111 -121q55 -78 83 -173t28 -200q0 -115 -32.5 -216t-96 -177t-157 -120t-214.5 -44q-111 0 -196.5 36t-147.5 102l-121 -129z M199 528q0 -74 17 -144.5t56 -131.5l559 604q-45 55 -110.5 89t-151.5 34q-92 0 -161.5 -39t-115.5 -102.5t-69.5 -144.5t-23.5 -165zM309 199q43 -53 108.5 -87t151.5 -34q92 0 162 39t116 102.5t69.5 144t23.5 164.5q0 74 -17.5 144.5t-54.5 130.5z" />
<glyph unicode="&#xf9;" horiz-adv-x="1099" d="M121 371v686h129v-688q0 -143 64.5 -217t217.5 -74q82 0 142.5 36t99.5 95t57.5 136t18.5 157v555h129v-1057h-119v190h-4q-51 -106 -148.5 -162.5t-215.5 -56.5q-201 0 -286 105.5t-85 294.5zM297 1493h160l215 -289h-105z" />
<glyph unicode="&#xfa;" horiz-adv-x="1099" d="M121 371v686h129v-688q0 -143 64.5 -217t217.5 -74q82 0 142.5 36t99.5 95t57.5 136t18.5 157v555h129v-1057h-119v190h-4q-51 -106 -148.5 -162.5t-215.5 -56.5q-201 0 -286 105.5t-85 294.5zM428 1204l215 289h160l-271 -289h-104z" />
<glyph unicode="&#xfb;" horiz-adv-x="1099" d="M121 371v686h129v-688q0 -143 64.5 -217t217.5 -74q82 0 142.5 36t99.5 95t57.5 136t18.5 157v555h129v-1057h-119v190h-4q-51 -106 -148.5 -162.5t-215.5 -56.5q-201 0 -286 105.5t-85 294.5zM246 1204l233 289h142l233 -289h-133l-176 209l-180 -209h-119z" />
<glyph unicode="&#xfc;" horiz-adv-x="1099" d="M121 371v686h129v-688q0 -143 64.5 -217t217.5 -74q82 0 142.5 36t99.5 95t57.5 136t18.5 157v555h129v-1057h-119v190h-4q-51 -106 -148.5 -162.5t-215.5 -56.5q-201 0 -286 105.5t-85 294.5zM299 1239v207h139v-207h-139zM662 1239v207h139v-207h-139z" />
<glyph unicode="&#xfd;" horiz-adv-x="948" d="M4 1057h137l348 -901l326 901h129l-459 -1217q-25 -68 -49 -112.5t-55 -70.5t-72 -36t-102 -10q-39 0 -60.5 2t-37.5 8v109q23 -4 44 -7.5t44 -3.5q43 0 71.5 12.5t49 34t35 52t28.5 67.5l45 119zM352 1204l215 289h160l-270 -289h-105z" />
<glyph unicode="&#xfe;" horiz-adv-x="1175" d="M123 -389v1851h129v-606h4q20 57 58 100t87.5 72t105.5 44t116 15q121 0 210 -45t148 -121.5t88 -178t29 -214.5q0 -115 -29 -215t-88 -177t-148.5 -121t-209.5 -44q-59 0 -115.5 14.5t-106 43t-87.5 71.5t-58 101h-4v-590h-129zM252 528q0 -82 19.5 -162.5t63.5 -144 t114.5 -103.5t173.5 -40q92 0 157.5 40t107.5 103.5t61.5 144t19.5 162.5t-19.5 163t-61.5 144.5t-107.5 103.5t-157.5 40q-102 0 -173 -40t-115 -103.5t-63.5 -144.5t-19.5 -163z" />
<glyph unicode="&#xff;" horiz-adv-x="948" d="M4 1057h137l348 -901l326 901h129l-459 -1217q-25 -68 -49 -112.5t-55 -70.5t-72 -36t-102 -10q-39 0 -60.5 2t-37.5 8v109q23 -4 44 -7.5t44 -3.5q43 0 71.5 12.5t49 34t35 52t28.5 67.5l45 119zM223 1239v207h139v-207h-139zM586 1239v207h139v-207h-139z" />
<glyph unicode="&#x152;" horiz-adv-x="2199" d="M76 731q0 154 47 292t136 242.5t217 166t292 61.5q117 0 221.5 -36t175.5 -116v121h971v-119h-831v-528h753v-119h-753v-577h837v-119h-977v143q-74 -86 -180 -129t-217 -43q-164 0 -292 60.5t-217 165t-136 243t-47 291.5zM215 731q0 -129 36 -245.5t106.5 -204.5 t174 -140.5t236.5 -52.5q113 0 201 35t159 127q20 25 28.5 53.5t8.5 58.5v680q0 49 -2 80t-8 56q-18 47 -61 83.5t-98.5 61.5t-116 38t-111.5 13q-133 0 -236.5 -52t-174 -140t-106.5 -205t-36 -246z" />
<glyph unicode="&#x153;" horiz-adv-x="1820" d="M74 528q0 111 28.5 211.5t87 178t146.5 123.5t209 46q135 0 235.5 -62t141.5 -198h4q43 117 145.5 188.5t243.5 71.5q236 0 344 -148t108 -445h-786q0 -78 19.5 -153t59.5 -133t102.5 -94t148.5 -36q135 0 213 69.5t112 192.5h129q-43 -180 -161.5 -274.5t-305.5 -94.5 q-66 0 -126 17.5t-110 51.5t-86 83t-54 115h-4q-39 -135 -140.5 -201t-238.5 -66q-125 0 -213 45t-144.5 122t-82 178.5t-25.5 211.5zM203 504q0 -80 18.5 -156t59.5 -136t104.5 -97t155.5 -37q98 0 158.5 41t94 107.5t46 148.5t12.5 162t-12.5 158.5t-47 142t-95 102.5 t-154.5 39q-100 0 -166 -43t-105 -111.5t-54 -153.5t-15 -167zM981 602h657q0 74 -21.5 142.5t-62.5 121t-102 83t-141 30.5q-82 0 -143.5 -30.5t-103.5 -83t-62.5 -120t-20.5 -143.5z" />
<glyph unicode="&#x178;" horiz-adv-x="1251" d="M-18 1462h163l482 -741l479 741h166l-578 -860v-602h-139v602zM375 1614v207h139v-207h-139zM737 1614v207h140v-207h-140z" />
<glyph unicode="&#x2c6;" horiz-adv-x="378" d="M-113 1204l232 289h141l234 -289h-134l-176 209l-180 -209h-117z" />
<glyph unicode="&#x2dc;" horiz-adv-x="378" d="M-131 1245q4 37 17.5 72t37 62.5t55 45t70.5 17.5q43 0 82 -14.5t73 -31t63.5 -30.5t58.5 -14q47 0 70.5 28.5t35.5 69.5h78q-6 -35 -19.5 -69.5t-35 -62.5t-52 -45.5t-71.5 -17.5t-80 14.5t-74 33t-65.5 33t-57.5 14.5q-47 0 -76.5 -27t-29.5 -78h-80z" />
<glyph unicode="&#x2000;" horiz-adv-x="990" />
<glyph unicode="&#x2001;" horiz-adv-x="1980" />
<glyph unicode="&#x2002;" horiz-adv-x="990" />
<glyph unicode="&#x2003;" horiz-adv-x="1980" />
<glyph unicode="&#x2004;" horiz-adv-x="660" />
<glyph unicode="&#x2005;" horiz-adv-x="495" />
<glyph unicode="&#x2006;" horiz-adv-x="330" />
<glyph unicode="&#x2007;" horiz-adv-x="330" />
<glyph unicode="&#x2008;" horiz-adv-x="247" />
<glyph unicode="&#x2009;" horiz-adv-x="396" />
<glyph unicode="&#x200a;" horiz-adv-x="110" />
<glyph unicode="&#x2010;" horiz-adv-x="757" d="M123 504v119h512v-119h-512z" />
<glyph unicode="&#x2011;" horiz-adv-x="757" d="M123 504v119h512v-119h-512z" />
<glyph unicode="&#x2012;" horiz-adv-x="757" d="M123 504v119h512v-119h-512z" />
<glyph unicode="&#x2013;" horiz-adv-x="1024" d="M0 504v119h1024v-119h-1024z" />
<glyph unicode="&#x2014;" horiz-adv-x="2048" d="M266 504v119h1516v-119h-1516z" />
<glyph unicode="&#x2018;" horiz-adv-x="569" d="M195 965v219q0 45 11 89t33.5 82t56.5 66.5t81 40.5v-88q-27 -10 -45.5 -31.5t-30.5 -49t-17 -57.5t-3 -54h86v-217h-172z" />
<glyph unicode="&#x2019;" horiz-adv-x="569" d="M193 965v88q27 8 45 29.5t30.5 49t17.5 58.5t3 55h-86v217h172v-219q0 -45 -11.5 -89t-34 -82t-57 -66.5t-79.5 -40.5z" />
<glyph unicode="&#x201a;" horiz-adv-x="569" d="M193 -190q27 8 45 30.5t30.5 50t17.5 57t3 52.5h-86v217h172v-217q0 -45 -11.5 -89t-34 -82t-57 -66.5t-79.5 -41.5v89z" />
<glyph unicode="&#x201c;" horiz-adv-x="757" d="M131 965v219q0 45 11.5 89t34 82t56 66.5t80.5 40.5v-88q-27 -10 -45 -31.5t-30.5 -49t-17.5 -57.5t-3 -54h86v-217h-172zM446 965v219q0 45 11.5 89t34 82t56.5 66.5t81 40.5v-88q-27 -10 -45.5 -31.5t-30.5 -49t-17.5 -57.5t-3.5 -54h86v-217h-172z" />
<glyph unicode="&#x201d;" horiz-adv-x="757" d="M129 965v88q27 8 45.5 29.5t30.5 49t17 58.5t3 55h-86v217h172v-219q0 -45 -11 -89t-33.5 -82t-57.5 -66.5t-80 -40.5zM444 965v88q27 8 45.5 29.5t30.5 49t17.5 58.5t3.5 55h-86v217h172v-219q0 -45 -11.5 -89t-34 -82t-57.5 -66.5t-80 -40.5z" />
<glyph unicode="&#x201e;" horiz-adv-x="757" d="M129 -190q27 8 45.5 30.5t30.5 50t17 57t3 52.5h-86v217h172v-217q0 -45 -11 -89t-33.5 -82t-57.5 -66.5t-80 -41.5v89zM444 -190q27 8 45.5 30.5t30.5 50t17.5 57t3.5 52.5h-86v217h172v-217q0 -45 -11.5 -89t-34 -82t-57.5 -66.5t-80 -41.5v89z" />
<glyph unicode="&#x2022;" horiz-adv-x="1024" d="M147 731q0 76 29 142.5t78 115.5t115.5 78t142.5 29t142.5 -29t116.5 -78t79 -115.5t29 -142.5t-29 -142.5t-79 -116.5t-116.5 -78.5t-142.5 -28.5t-142.5 28.5t-115.5 78.5t-78 116.5t-29 142.5z" />
<glyph unicode="&#x2026;" horiz-adv-x="2048" d="M256 0v217h172v-217h-172zM938 0v217h172v-217h-172zM1620 0v217h172v-217h-172z" />
<glyph unicode="&#x202f;" horiz-adv-x="396" />
<glyph unicode="&#x2039;" horiz-adv-x="530" d="M109 500v127l272 256v-138l-193 -182l193 -182v-137z" />
<glyph unicode="&#x203a;" horiz-adv-x="530" d="M150 244v137l192 182l-192 182v138l272 -256v-127z" />
<glyph unicode="&#x205f;" horiz-adv-x="495" />
<glyph unicode="&#x20ac;" d="M31 584l39 92h90q-2 4 -2 18v23q0 16 1 35.5t3 44.5h-131l37 92h104q47 254 188 401q156 168 400 168q254 0 381 -158l-56 -120q-135 162 -327 161q-188 0 -307 -137q-104 -121 -142 -315h682l-37 -92h-657q-6 -53 -6 -88v-17q0 -12 2 -16h622l-38 -92h-578 q29 -215 129 -346q123 -154 324 -154q106 0 196 47q70 39 160 129v-158q-155 -131 -360 -131q-258 0 -414 181q-137 162 -168 432h-135z" />
<glyph unicode="&#x2122;" horiz-adv-x="2027" d="M168 1370v92h657v-92h-274v-752h-109v752h-274zM975 618v844h174l272 -684l265 684h174v-844h-109v746h-4l-299 -746h-62l-299 746h-4v-746h-108z" />
<glyph unicode="&#xe000;" horiz-adv-x="1054" d="M0 0v1055h1055v-1055h-1055z" />
<glyph unicode="&#xfb01;" horiz-adv-x="909" d="M12 948v109h181v96q0 68 10 125t38.5 98t79 63.5t128.5 22.5q29 0 53 -2t55 -6v-111q-27 4 -49.5 7.5t-44.5 3.5q-53 0 -82 -16.5t-42 -44t-15 -64.5t-2 -80v-92h208v-109h-208v-948h-129v948h-181zM655 0v1057h129v-1057h-129zM655 1255v207h129v-207h-129z" />
<glyph unicode="&#xfb02;" horiz-adv-x="909" d="M12 948v109h181v96q0 68 10 125t38.5 98t79 63.5t128.5 22.5q29 0 53 -2t55 -6v-111q-27 4 -49.5 7.5t-44.5 3.5q-53 0 -82 -16.5t-42 -44t-15 -64.5t-2 -80v-92h208v-109h-208v-948h-129v948h-181zM655 0v1462h129v-1462h-129z" />
<glyph unicode="&#xfb03;" horiz-adv-x="1402" d="M12 948v109h181v96q0 68 10 125t38.5 98t79 63.5t128.5 22.5q29 0 53 -2t55 -6v-111q-27 4 -49.5 7.5t-44.5 3.5q-53 0 -82 -16.5t-42 -44t-15 -64.5t-2 -80v-92h364v96q0 68 10.5 125t39 98t78.5 63.5t128 22.5q29 0 53.5 -2t55.5 -6v-111q-27 4 -49.5 7.5t-45.5 3.5 q-53 0 -81.5 -16.5t-42 -44t-15.5 -64.5t-2 -80v-92h209v-109h-209v-948h-129v948h-364v-948h-129v948h-181zM1149 0v1057h129v-1057h-129zM1149 1255v207h129v-207h-129z" />
<glyph unicode="&#xfb04;" horiz-adv-x="1402" d="M12 948v109h181v96q0 68 10 125t38.5 98t79 63.5t128.5 22.5q29 0 53 -2t55 -6v-111q-27 4 -49.5 7.5t-44.5 3.5q-53 0 -82 -16.5t-42 -44t-15 -64.5t-2 -80v-92h364v96q0 68 10.5 125t39 98t78.5 63.5t128 22.5q29 0 53.5 -2t55.5 -6v-111q-27 4 -49.5 7.5t-45.5 3.5 q-53 0 -81.5 -16.5t-42 -44t-15.5 -64.5t-2 -80v-92h209v-109h-209v-948h-129v948h-364v-948h-129v948h-181zM1149 0v1462h129v-1462h-129z" />
</font>
</defs>
</svg>
